<svg class="main-svg" xmlns="http://www.w3.org/2000/svg" xmlns:xlink="http://www.w3.org/1999/xlink" width="700" height="500" style="" viewBox="0 0 700 500"><rect x="0" y="0" width="700" height="500" style="fill: rgb(0, 0, 0); fill-opacity: 0;"/><defs id="defs-57ca7d"><g class="clips"><clipPath id="clip57ca7dxyplot" class="plotclip"><rect width="561" height="335"/></clipPath><clipPath class="axesclip" id="clip57ca7dx"><rect x="51" y="0" width="561" height="500"/></clipPath><clipPath class="axesclip" id="clip57ca7dy"><rect x="0" y="40" width="700" height="335"/></clipPath><clipPath class="axesclip" id="clip57ca7dxy"><rect x="51" y="40" width="561" height="335"/></clipPath></g><g class="gradients"/><g class="patterns"/></defs><g class="bglayer"><rect class="bg" x="51" y="40" width="561" height="335" style="fill: rgb(0, 0, 0); fill-opacity: 0; stroke-width: 0;"/></g><g class="layer-below"><g class="imagelayer"/><g class="shapelayer"/></g><g class="cartesianlayer"><g class="subplot xy"><g class="layer-subplot"><g class="shapelayer"/><g class="imagelayer"/></g><g class="minor-gridlayer"><g class="x"/><g class="y"/></g><g class="gridlayer"><g class="x"><path class="xgrid crisp" transform="translate(79.05,0)" d="M0,40v335" style="stroke: rgb(255, 255, 255); stroke-opacity: 1; stroke-width: 1px;"/><path class="xgrid crisp" transform="translate(135.15,0)" d="M0,40v335" style="stroke: rgb(255, 255, 255); stroke-opacity: 1; stroke-width: 1px;"/><path class="xgrid crisp" transform="translate(191.25,0)" d="M0,40v335" style="stroke: rgb(255, 255, 255); stroke-opacity: 1; stroke-width: 1px;"/><path class="xgrid crisp" transform="translate(247.35,0)" d="M0,40v335" style="stroke: rgb(255, 255, 255); stroke-opacity: 1; stroke-width: 1px;"/><path class="xgrid crisp" transform="translate(303.45,0)" d="M0,40v335" style="stroke: rgb(255, 255, 255); stroke-opacity: 1; stroke-width: 1px;"/><path class="xgrid crisp" transform="translate(359.55,0)" d="M0,40v335" style="stroke: rgb(255, 255, 255); stroke-opacity: 1; stroke-width: 1px;"/><path class="xgrid crisp" transform="translate(415.65,0)" d="M0,40v335" style="stroke: rgb(255, 255, 255); stroke-opacity: 1; stroke-width: 1px;"/><path class="xgrid crisp" transform="translate(471.75,0)" d="M0,40v335" style="stroke: rgb(255, 255, 255); stroke-opacity: 1; stroke-width: 1px;"/><path class="xgrid crisp" transform="translate(527.85,0)" d="M0,40v335" style="stroke: rgb(255, 255, 255); stroke-opacity: 1; stroke-width: 1px;"/><path class="xgrid crisp" transform="translate(583.95,0)" d="M0,40v335" style="stroke: rgb(255, 255, 255); stroke-opacity: 1; stroke-width: 1px;"/></g><g class="y"><path class="ygrid crisp" transform="translate(0,337.91)" d="M51,0h561" style="stroke: rgb(255, 255, 255); stroke-opacity: 1; stroke-width: 1px;"/><path class="ygrid crisp" transform="translate(0,300.82)" d="M51,0h561" style="stroke: rgb(255, 255, 255); stroke-opacity: 1; stroke-width: 1px;"/><path class="ygrid crisp" transform="translate(0,263.72)" d="M51,0h561" style="stroke: rgb(255, 255, 255); stroke-opacity: 1; stroke-width: 1px;"/><path class="ygrid crisp" transform="translate(0,226.63)" d="M51,0h561" style="stroke: rgb(255, 255, 255); stroke-opacity: 1; stroke-width: 1px;"/><path class="ygrid crisp" transform="translate(0,189.54)" d="M51,0h561" style="stroke: rgb(255, 255, 255); stroke-opacity: 1; stroke-width: 1px;"/><path class="ygrid crisp" transform="translate(0,152.45)" d="M51,0h561" style="stroke: rgb(255, 255, 255); stroke-opacity: 1; stroke-width: 1px;"/><path class="ygrid crisp" transform="translate(0,115.36)" d="M51,0h561" style="stroke: rgb(255, 255, 255); stroke-opacity: 1; stroke-width: 1px;"/><path class="ygrid crisp" transform="translate(0,78.25999999999999)" d="M51,0h561" style="stroke: rgb(255, 255, 255); stroke-opacity: 1; stroke-width: 1px;"/><path class="ygrid crisp" transform="translate(0,41.17)" d="M51,0h561" style="stroke: rgb(255, 255, 255); stroke-opacity: 1; stroke-width: 1px;"/></g></g><g class="zerolinelayer"/><g class="layer-between"><g class="shapelayer"/><g class="imagelayer"/></g><path class="xlines-below"/><path class="ylines-below"/><g class="overlines-below"/><g class="xaxislayer-below"/><g class="yaxislayer-below"/><g class="overaxes-below"/><g class="overplot"><g class="xy" transform="translate(51,40)" clip-path="url(#clip57ca7dxyplot)"><g class="barlayer mlayer"><g class="trace bars" style="opacity: 1;"><g class="points"><g class="point"><path d="M5.61,335V24.75A 8,8 0 0 1 13.61,16.75H42.49A 8,8 0 0 1 50.49,24.75V335Z" style="vector-effect: none; opacity: 1; stroke-width: 1px; fill: rgb(174, 198, 207); fill-opacity: 1; stroke: rgb(255, 255, 255); stroke-opacity: 1;"/><text class="bartext bartext-inside" text-anchor="middle" data-notex="1" x="0" y="0" style="font-family: 'Open Sans', verdana, arial, sans-serif; font-size: 12px; fill: rgb(68, 68, 68); fill-opacity: 1; white-space: pre;" transform="translate(27.887890625,31.56612494307689)">17.2%</text></g><g class="point"><path d="M61.71,335V52.57A 8,8 0 0 1 69.71000000000001,44.57H98.59A 8,8 0 0 1 106.59,52.57V335Z" style="vector-effect: none; opacity: 1; stroke-width: 1px; fill: rgb(255, 209, 220); fill-opacity: 1; stroke: rgb(255, 255, 255); stroke-opacity: 1;"/><text class="bartext bartext-inside" text-anchor="middle" data-notex="1" x="0" y="0" style="font-family: 'Open Sans', verdana, arial, sans-serif; font-size: 12px; fill: rgb(68, 68, 68); fill-opacity: 1; white-space: pre;" transform="translate(83.987890625,59.38612494307689)">15.7%</text></g><g class="point"><path d="M117.81,335V54.98A 8,8 0 0 1 125.81,46.98H154.69A 8,8 0 0 1 162.69,54.98V335Z" style="vector-effect: none; opacity: 1; stroke-width: 1px; fill: rgb(255, 179, 222); fill-opacity: 1; stroke: rgb(255, 255, 255); stroke-opacity: 1;"/><text class="bartext bartext-inside" text-anchor="middle" data-notex="1" x="0" y="0" style="font-family: 'Open Sans', verdana, arial, sans-serif; font-size: 12px; fill: rgb(68, 68, 68); fill-opacity: 1; white-space: pre;" transform="translate(140.087890625,61.79612494307689)">15.5%</text></g><g class="point"><path d="M173.91,335V181.09A 8,8 0 0 1 181.91,173.09H210.79A 8,8 0 0 1 218.79,181.09V335Z" style="vector-effect: none; opacity: 1; stroke-width: 1px; fill: rgb(181, 234, 234); fill-opacity: 1; stroke: rgb(255, 255, 255); stroke-opacity: 1;"/><text class="bartext bartext-inside" text-anchor="middle" data-notex="1" x="0" y="0" style="font-family: 'Open Sans', verdana, arial, sans-serif; font-size: 12px; fill: rgb(68, 68, 68); fill-opacity: 1; white-space: pre;" transform="translate(196.1888671875,187.12603145637613)">8.7%</text></g><g class="point"><path d="M230.01,335V195.19A 8,8 0 0 1 238.01,187.19H266.89A 8,8 0 0 1 274.89,195.19V335Z" style="vector-effect: none; opacity: 1; stroke-width: 1px; fill: rgb(194, 240, 194); fill-opacity: 1; stroke: rgb(255, 255, 255); stroke-opacity: 1;"/><text class="bartext bartext-inside" text-anchor="middle" data-notex="1" x="0" y="0" style="font-family: 'Open Sans', verdana, arial, sans-serif; font-size: 12px; fill: rgb(68, 68, 68); fill-opacity: 1; white-space: pre;" transform="translate(252.2888671875,201.22603145637612)">8.0%</text></g><g class="point"><path d="M286.11,335V210.77A 8,8 0 0 1 294.11,202.77H322.99A 8,8 0 0 1 330.99,210.77V335Z" style="vector-effect: none; opacity: 1; stroke-width: 1px; fill: rgb(255, 188, 179); fill-opacity: 1; stroke: rgb(255, 255, 255); stroke-opacity: 1;"/><text class="bartext bartext-inside" text-anchor="middle" data-notex="1" x="0" y="0" style="font-family: 'Open Sans', verdana, arial, sans-serif; font-size: 12px; fill: rgb(68, 68, 68); fill-opacity: 1; white-space: pre;" transform="translate(308.3888671875,216.80603145637613)">7.1%</text></g><g class="point"><path d="M342.21,335V242.48A 8,8 0 0 1 350.21,234.48H379.09A 8,8 0 0 1 387.09,242.48V335Z" style="vector-effect: none; opacity: 1; stroke-width: 1px; fill: rgb(255, 204, 153); fill-opacity: 1; stroke: rgb(255, 255, 255); stroke-opacity: 1;"/><text class="bartext bartext-inside" text-anchor="middle" data-notex="1" x="0" y="0" style="font-family: 'Open Sans', verdana, arial, sans-serif; font-size: 12px; fill: rgb(68, 68, 68); fill-opacity: 1; white-space: pre;" transform="translate(364.4888671875,248.5160314563761)">5.4%</text></g><g class="point"><path d="M398.31,335V250.46A 8,8 0 0 1 406.31,242.46H435.19A 8,8 0 0 1 443.19,250.46V335Z" style="vector-effect: none; opacity: 1; stroke-width: 1px; fill: rgb(217, 234, 211); fill-opacity: 1; stroke: rgb(255, 255, 255); stroke-opacity: 1;"/><text class="bartext bartext-inside" text-anchor="middle" data-notex="1" x="0" y="0" style="font-family: 'Open Sans', verdana, arial, sans-serif; font-size: 12px; fill: rgb(68, 68, 68); fill-opacity: 1; white-space: pre;" transform="translate(420.5888671875,256.49603145637616)">5.0%</text></g><g class="point"><path d="M454.41,335V251.2A 8,8 0 0 1 462.41,243.2H491.29A 8,8 0 0 1 499.29,251.2V335Z" style="vector-effect: none; opacity: 1; stroke-width: 1px; fill: rgb(213, 166, 189); fill-opacity: 1; stroke: rgb(255, 255, 255); stroke-opacity: 1;"/><text class="bartext bartext-inside" text-anchor="middle" data-notex="1" x="0" y="0" style="font-family: 'Open Sans', verdana, arial, sans-serif; font-size: 12px; fill: rgb(68, 68, 68); fill-opacity: 1; white-space: pre;" transform="translate(476.6888671875,257.2360314563761)">5.0%</text></g><g class="point"><path d="M510.51,335V281.61A 8,8 0 0 1 518.51,273.61H547.39A 8,8 0 0 1 555.39,281.61V335Z" style="vector-effect: none; opacity: 1; stroke-width: 1px; fill: rgb(255, 102, 102); fill-opacity: 1; stroke: rgb(255, 255, 255); stroke-opacity: 1;"/><text class="bartext bartext-inside" text-anchor="middle" data-notex="1" x="0" y="0" style="font-family: 'Open Sans', verdana, arial, sans-serif; font-size: 12px; fill: rgb(68, 68, 68); fill-opacity: 1; white-space: pre;" transform="translate(532.7888671875,287.64603145637614)">3.3%</text></g></g></g></g></g></g><path class="xlines-above crisp" d="M0,0" style="fill: none;"/><path class="ylines-above crisp" d="M0,0" style="fill: none;"/><g class="overlines-above"/><g class="xaxislayer-above"><g class="xtick"><text text-anchor="start" x="0" y="388" transform="translate(79.05,0) rotate(29.999999999999996,0,382)" style="font-family: 'Open Sans', verdana, arial, sans-serif; font-size: 12px; fill: rgb(42, 63, 95); fill-opacity: 1; white-space: pre; opacity: 1;">📊 Other</text></g><g class="xtick"><text text-anchor="start" x="0" y="388" transform="translate(135.15,0) rotate(29.999999999999996,0,382)" style="font-family: 'Open Sans', verdana, arial, sans-serif; font-size: 12px; fill: rgb(42, 63, 95); fill-opacity: 1; white-space: pre; opacity: 1;">💰 Financials</text></g><g class="xtick"><text text-anchor="start" x="0" y="388" transform="translate(191.25,0) rotate(29.999999999999996,0,382)" style="font-family: 'Open Sans', verdana, arial, sans-serif; font-size: 12px; fill: rgb(42, 63, 95); fill-opacity: 1; white-space: pre; opacity: 1;">💻 Technology</text></g><g class="xtick"><text text-anchor="start" x="0" y="388" transform="translate(247.35,0) rotate(29.999999999999996,0,382)" style="font-family: 'Open Sans', verdana, arial, sans-serif; font-size: 12px; fill: rgb(42, 63, 95); fill-opacity: 1; white-space: pre; opacity: 1;">📈 Silver spot price</text></g><g class="xtick"><text text-anchor="start" x="0" y="388" transform="translate(303.45,0) rotate(29.999999999999996,0,382)" style="font-family: 'Open Sans', verdana, arial, sans-serif; font-size: 12px; fill: rgb(42, 63, 95); fill-opacity: 1; white-space: pre; opacity: 1;">🏭 Industrials</text></g><g class="xtick"><text text-anchor="start" x="0" y="388" transform="translate(359.55,0) rotate(29.999999999999996,0,382)" style="font-family: 'Open Sans', verdana, arial, sans-serif; font-size: 12px; fill: rgb(42, 63, 95); fill-opacity: 1; white-space: pre; opacity: 1;">🛍️ Consumer Discretionary</text></g><g class="xtick"><text text-anchor="start" x="0" y="388" transform="translate(415.65,0) rotate(29.999999999999996,0,382)" style="font-family: 'Open Sans', verdana, arial, sans-serif; font-size: 12px; fill: rgb(42, 63, 95); fill-opacity: 1; white-space: pre; opacity: 1;">📈 Gold spot price</text></g><g class="xtick"><text text-anchor="start" x="0" y="388" transform="translate(471.75,0) rotate(29.999999999999996,0,382)" style="font-family: 'Open Sans', verdana, arial, sans-serif; font-size: 12px; fill: rgb(42, 63, 95); fill-opacity: 1; white-space: pre; opacity: 1;">🏥 Health Care</text></g><g class="xtick"><text text-anchor="start" x="0" y="388" transform="translate(527.85,0) rotate(29.999999999999996,0,382)" style="font-family: 'Open Sans', verdana, arial, sans-serif; font-size: 12px; fill: rgb(42, 63, 95); fill-opacity: 1; white-space: pre; opacity: 1;">📱 Telecommunications</text></g><g class="xtick"><text text-anchor="start" x="0" y="388" transform="translate(583.95,0) rotate(29.999999999999996,0,382)" style="font-family: 'Open Sans', verdana, arial, sans-serif; font-size: 12px; fill: rgb(42, 63, 95); fill-opacity: 1; white-space: pre; opacity: 1;">🛒 Consumer Staples</text></g></g><g class="yaxislayer-above"><g class="ytick"><text text-anchor="end" x="50" y="4.199999999999999" transform="translate(0,375)" style="font-family: 'Open Sans', verdana, arial, sans-serif; font-size: 12px; fill: rgb(42, 63, 95); fill-opacity: 1; white-space: pre; opacity: 1;">0</text></g><g class="ytick"><text text-anchor="end" x="50" y="4.199999999999999" style="font-family: 'Open Sans', verdana, arial, sans-serif; font-size: 12px; fill: rgb(42, 63, 95); fill-opacity: 1; white-space: pre; opacity: 1;" transform="translate(0,337.91)">2</text></g><g class="ytick"><text text-anchor="end" x="50" y="4.199999999999999" style="font-family: 'Open Sans', verdana, arial, sans-serif; font-size: 12px; fill: rgb(42, 63, 95); fill-opacity: 1; white-space: pre; opacity: 1;" transform="translate(0,300.82)">4</text></g><g class="ytick"><text text-anchor="end" x="50" y="4.199999999999999" style="font-family: 'Open Sans', verdana, arial, sans-serif; font-size: 12px; fill: rgb(42, 63, 95); fill-opacity: 1; white-space: pre; opacity: 1;" transform="translate(0,263.72)">6</text></g><g class="ytick"><text text-anchor="end" x="50" y="4.199999999999999" style="font-family: 'Open Sans', verdana, arial, sans-serif; font-size: 12px; fill: rgb(42, 63, 95); fill-opacity: 1; white-space: pre; opacity: 1;" transform="translate(0,226.63)">8</text></g><g class="ytick"><text text-anchor="end" x="50" y="4.199999999999999" style="font-family: 'Open Sans', verdana, arial, sans-serif; font-size: 12px; fill: rgb(42, 63, 95); fill-opacity: 1; white-space: pre; opacity: 1;" transform="translate(0,189.54)">10</text></g><g class="ytick"><text text-anchor="end" x="50" y="4.199999999999999" style="font-family: 'Open Sans', verdana, arial, sans-serif; font-size: 12px; fill: rgb(42, 63, 95); fill-opacity: 1; white-space: pre; opacity: 1;" transform="translate(0,152.45)">12</text></g><g class="ytick"><text text-anchor="end" x="50" y="4.199999999999999" style="font-family: 'Open Sans', verdana, arial, sans-serif; font-size: 12px; fill: rgb(42, 63, 95); fill-opacity: 1; white-space: pre; opacity: 1;" transform="translate(0,115.36)">14</text></g><g class="ytick"><text text-anchor="end" x="50" y="4.199999999999999" style="font-family: 'Open Sans', verdana, arial, sans-serif; font-size: 12px; fill: rgb(42, 63, 95); fill-opacity: 1; white-space: pre; opacity: 1;" transform="translate(0,78.25999999999999)">16</text></g><g class="ytick"><text text-anchor="end" x="50" y="4.199999999999999" style="font-family: 'Open Sans', verdana, arial, sans-serif; font-size: 12px; fill: rgb(42, 63, 95); fill-opacity: 1; white-space: pre; opacity: 1;" transform="translate(0,41.17)">18</text></g></g><g class="overaxes-above"/></g></g><g class="polarlayer"/><g class="smithlayer"/><g class="ternarylayer"/><g class="geolayer"/><g class="funnelarealayer"/><g class="pielayer"/><g class="iciclelayer"/><g class="treemaplayer"/><g class="sunburstlayer"/><g class="glimages"/><defs id="topdefs-57ca7d"><g class="clips"/></defs><g class="layer-above"><g class="imagelayer"/><g class="shapelayer"/></g><g class="infolayer"><g class="g-gtitle"/><g class="g-xtitle"/><g class="g-ytitle"><text class="ytitle" transform="rotate(-90,17.240625,207.5)" x="17.240625" y="207.5" text-anchor="middle" style="opacity: 1; font-family: 'Open Sans', verdana, arial, sans-serif; font-size: 14px; fill: rgb(42, 63, 95); fill-opacity: 1; white-space: pre;">Peso (%)</text></g></g></svg>