<svg class="main-svg" xmlns="http://www.w3.org/2000/svg" xmlns:xlink="http://www.w3.org/1999/xlink" width="700" height="500" style="" viewBox="0 0 700 500"><rect x="0" y="0" width="700" height="500" style="fill: rgb(0, 0, 0); fill-opacity: 0;"/><defs id="defs-9ac2c9"><g class="clips"><clipPath id="clip9ac2c9xyplot" class="plotclip"><rect width="609" height="356"/></clipPath><clipPath class="axesclip" id="clip9ac2c9x"><rect x="51" y="0" width="609" height="500"/></clipPath><clipPath class="axesclip" id="clip9ac2c9y"><rect x="0" y="40" width="700" height="356"/></clipPath><clipPath class="axesclip" id="clip9ac2c9xy"><rect x="51" y="40" width="609" height="356"/></clipPath></g><g class="gradients"/><g class="patterns"/></defs><g class="bglayer"><rect class="bg" x="51" y="40" width="609" height="356" style="fill: rgb(0, 0, 0); fill-opacity: 0; stroke-width: 0;"/></g><g class="layer-below"><g class="imagelayer"/><g class="shapelayer"/></g><g class="cartesianlayer"><g class="subplot xy"><g class="layer-subplot"><g class="shapelayer"/><g class="imagelayer"/></g><g class="minor-gridlayer"><g class="x"/><g class="y"/></g><g class="gridlayer"><g class="x"><path class="xgrid crisp" transform="translate(81.45,0)" d="M0,40v356" style="stroke: rgb(255, 255, 255); stroke-opacity: 1; stroke-width: 1px;"/><path class="xgrid crisp" transform="translate(142.35,0)" d="M0,40v356" style="stroke: rgb(255, 255, 255); stroke-opacity: 1; stroke-width: 1px;"/><path class="xgrid crisp" transform="translate(203.25,0)" d="M0,40v356" style="stroke: rgb(255, 255, 255); stroke-opacity: 1; stroke-width: 1px;"/><path class="xgrid crisp" transform="translate(264.15,0)" d="M0,40v356" style="stroke: rgb(255, 255, 255); stroke-opacity: 1; stroke-width: 1px;"/><path class="xgrid crisp" transform="translate(325.05,0)" d="M0,40v356" style="stroke: rgb(255, 255, 255); stroke-opacity: 1; stroke-width: 1px;"/><path class="xgrid crisp" transform="translate(385.95,0)" d="M0,40v356" style="stroke: rgb(255, 255, 255); stroke-opacity: 1; stroke-width: 1px;"/><path class="xgrid crisp" transform="translate(446.85,0)" d="M0,40v356" style="stroke: rgb(255, 255, 255); stroke-opacity: 1; stroke-width: 1px;"/><path class="xgrid crisp" transform="translate(507.75,0)" d="M0,40v356" style="stroke: rgb(255, 255, 255); stroke-opacity: 1; stroke-width: 1px;"/><path class="xgrid crisp" transform="translate(568.65,0)" d="M0,40v356" style="stroke: rgb(255, 255, 255); stroke-opacity: 1; stroke-width: 1px;"/><path class="xgrid crisp" transform="translate(629.55,0)" d="M0,40v356" style="stroke: rgb(255, 255, 255); stroke-opacity: 1; stroke-width: 1px;"/></g><g class="y"><path class="ygrid crisp" transform="translate(0,343.65)" d="M51,0h609" style="stroke: rgb(255, 255, 255); stroke-opacity: 1; stroke-width: 1px;"/><path class="ygrid crisp" transform="translate(0,291.28999999999996)" d="M51,0h609" style="stroke: rgb(255, 255, 255); stroke-opacity: 1; stroke-width: 1px;"/><path class="ygrid crisp" transform="translate(0,238.94)" d="M51,0h609" style="stroke: rgb(255, 255, 255); stroke-opacity: 1; stroke-width: 1px;"/><path class="ygrid crisp" transform="translate(0,186.59)" d="M51,0h609" style="stroke: rgb(255, 255, 255); stroke-opacity: 1; stroke-width: 1px;"/><path class="ygrid crisp" transform="translate(0,134.24)" d="M51,0h609" style="stroke: rgb(255, 255, 255); stroke-opacity: 1; stroke-width: 1px;"/><path class="ygrid crisp" transform="translate(0,81.88)" d="M51,0h609" style="stroke: rgb(255, 255, 255); stroke-opacity: 1; stroke-width: 1px;"/></g></g><g class="zerolinelayer"/><g class="layer-between"><g class="shapelayer"/><g class="imagelayer"/></g><path class="xlines-below"/><path class="ylines-below"/><g class="overlines-below"/><g class="xaxislayer-below"/><g class="yaxislayer-below"/><g class="overaxes-below"/><g class="overplot"><g class="xy" transform="translate(51,40)" clip-path="url(#clip9ac2c9xyplot)"><g class="barlayer mlayer"><g class="trace bars" style="opacity: 1;"><g class="points"><g class="point"><path d="M6.09,356V25.8A 8,8 0 0 1 14.09,17.8H46.81A 8,8 0 0 1 54.81,25.8V356Z" style="vector-effect: none; opacity: 1; stroke-width: 1px; fill: rgb(174, 198, 207); fill-opacity: 1; stroke: rgb(255, 255, 255); stroke-opacity: 1;"/><text class="bartext bartext-inside" text-anchor="middle" data-notex="1" x="0" y="0" style="font-family: 'Open Sans', verdana, arial, sans-serif; font-size: 12px; fill: rgb(68, 68, 68); fill-opacity: 1; white-space: pre;" transform="translate(30.287890625000003,31.86732217837579)">32.3%</text></g><g class="point"><path d="M66.99,356V272.59A 8,8 0 0 1 74.99,264.59H107.71A 8,8 0 0 1 115.71,272.59V356Z" style="vector-effect: none; opacity: 1; stroke-width: 1px; fill: rgb(255, 209, 220); fill-opacity: 1; stroke: rgb(255, 255, 255); stroke-opacity: 1;"/><text class="bartext bartext-inside" text-anchor="middle" data-notex="1" x="0" y="0" style="font-family: 'Open Sans', verdana, arial, sans-serif; font-size: 12px; fill: rgb(68, 68, 68); fill-opacity: 1; white-space: pre;" transform="translate(91.1888671875,279.2710031602133)">8.7%</text></g><g class="point"><path d="M127.89,356V299.61A 8,8 0 0 1 135.89,291.61H168.61A 8,8 0 0 1 176.61,299.61V356Z" style="vector-effect: none; opacity: 1; stroke-width: 1px; fill: rgb(255, 179, 222); fill-opacity: 1; stroke: rgb(255, 255, 255); stroke-opacity: 1;"/><text class="bartext bartext-inside" text-anchor="middle" data-notex="1" x="0" y="0" style="font-family: 'Open Sans', verdana, arial, sans-serif; font-size: 12px; fill: rgb(68, 68, 68); fill-opacity: 1; white-space: pre;" transform="translate(152.0888671875,306.29100316021334)">6.2%</text></g><g class="point"><path d="M188.79,356V304.11A 8,8 0 0 1 196.79,296.11H229.51A 8,8 0 0 1 237.51,304.11V356Z" style="vector-effect: none; opacity: 1; stroke-width: 1px; fill: rgb(181, 234, 234); fill-opacity: 1; stroke: rgb(255, 255, 255); stroke-opacity: 1;"/><text class="bartext bartext-inside" text-anchor="middle" data-notex="1" x="0" y="0" style="font-family: 'Open Sans', verdana, arial, sans-serif; font-size: 12px; fill: rgb(68, 68, 68); fill-opacity: 1; white-space: pre;" transform="translate(212.98886718749998,310.79100316021334)">5.7%</text></g><g class="point"><path d="M249.69,356V304.53A 8,8 0 0 1 257.69,296.53H290.41A 8,8 0 0 1 298.41,304.53V356Z" style="vector-effect: none; opacity: 1; stroke-width: 1px; fill: rgb(194, 240, 194); fill-opacity: 1; stroke: rgb(255, 255, 255); stroke-opacity: 1;"/><text class="bartext bartext-inside" text-anchor="middle" data-notex="1" x="0" y="0" style="font-family: 'Open Sans', verdana, arial, sans-serif; font-size: 12px; fill: rgb(68, 68, 68); fill-opacity: 1; white-space: pre;" transform="translate(273.8888671875,311.2110031602133)">5.7%</text></g><g class="point"><path d="M310.59,356V307.25A 8,8 0 0 1 318.59,299.25H351.31A 8,8 0 0 1 359.31,307.25V356Z" style="vector-effect: none; opacity: 1; stroke-width: 1px; fill: rgb(255, 188, 179); fill-opacity: 1; stroke: rgb(255, 255, 255); stroke-opacity: 1;"/><text class="bartext bartext-inside" text-anchor="middle" data-notex="1" x="0" y="0" style="font-family: 'Open Sans', verdana, arial, sans-serif; font-size: 12px; fill: rgb(68, 68, 68); fill-opacity: 1; white-space: pre;" transform="translate(334.7888671875,313.9310031602133)">5.4%</text></g><g class="point"><path d="M371.49,356V316.15A 8,8 0 0 1 379.49,308.15H412.21A 8,8 0 0 1 420.21,316.15V356Z" style="vector-effect: none; opacity: 1; stroke-width: 1px; fill: rgb(255, 204, 153); fill-opacity: 1; stroke: rgb(255, 255, 255); stroke-opacity: 1;"/><text class="bartext bartext-inside" text-anchor="middle" data-notex="1" x="0" y="0" style="font-family: 'Open Sans', verdana, arial, sans-serif; font-size: 12px; fill: rgb(68, 68, 68); fill-opacity: 1; white-space: pre;" transform="translate(395.6888671875,322.8310031602133)">4.6%</text></g><g class="point"><path d="M432.39,356V328.19A 8,8 0 0 1 440.39,320.19H473.11A 8,8 0 0 1 481.11,328.19V356Z" style="vector-effect: none; opacity: 1; stroke-width: 1px; fill: rgb(217, 234, 211); fill-opacity: 1; stroke: rgb(255, 255, 255); stroke-opacity: 1;"/><text class="bartext bartext-inside" text-anchor="middle" data-notex="1" x="0" y="0" style="font-family: 'Open Sans', verdana, arial, sans-serif; font-size: 12px; fill: rgb(68, 68, 68); fill-opacity: 1; white-space: pre;" transform="translate(456.5888671875,334.8710031602133)">3.4%</text></g><g class="point"><path d="M493.29,356V332.69A 8,8 0 0 1 501.29,324.69H534.01A 8,8 0 0 1 542.01,332.69V356Z" style="vector-effect: none; opacity: 1; stroke-width: 1px; fill: rgb(213, 166, 189); fill-opacity: 1; stroke: rgb(255, 255, 255); stroke-opacity: 1;"/><text class="bartext bartext-inside" text-anchor="middle" data-notex="1" x="0" y="0" style="font-family: 'Open Sans', verdana, arial, sans-serif; font-size: 12px; fill: rgb(68, 68, 68); fill-opacity: 1; white-space: pre;" transform="translate(517.4888671875,339.3710031602133)">3.0%</text></g><g class="point"><path d="M554.19,356V334.47A 8,8 0 0 1 562.19,326.47H594.91A 8,8 0 0 1 602.91,334.47V356Z" style="vector-effect: none; opacity: 1; stroke-width: 1px; fill: rgb(255, 102, 102); fill-opacity: 1; stroke: rgb(255, 255, 255); stroke-opacity: 1;"/><text class="bartext bartext-inside" text-anchor="middle" data-notex="1" x="0" y="0" style="font-family: 'Open Sans', verdana, arial, sans-serif; font-size: 12px; fill: rgb(68, 68, 68); fill-opacity: 1; white-space: pre;" transform="translate(578.3888671875,341.1510031602133)">2.8%</text></g></g></g></g></g></g><path class="xlines-above crisp" d="M0,0" style="fill: none;"/><path class="ylines-above crisp" d="M0,0" style="fill: none;"/><g class="overlines-above"/><g class="xaxislayer-above"><g class="xtick"><text text-anchor="start" x="0" y="409" transform="translate(81.45,0) rotate(29.999999999999996,0,403)" style="font-family: 'Open Sans', verdana, arial, sans-serif; font-size: 12px; fill: rgb(42, 63, 95); fill-opacity: 1; white-space: pre; opacity: 1;">🇺🇸 United States</text></g><g class="xtick"><text text-anchor="start" x="0" y="409" transform="translate(142.35,0) rotate(29.999999999999996,0,403)" style="font-family: 'Open Sans', verdana, arial, sans-serif; font-size: 12px; fill: rgb(42, 63, 95); fill-opacity: 1; white-space: pre; opacity: 1;">🏳️ Silver spot price</text></g><g class="xtick"><text text-anchor="start" x="0" y="409" transform="translate(203.25,0) rotate(29.999999999999996,0,403)" style="font-family: 'Open Sans', verdana, arial, sans-serif; font-size: 12px; fill: rgb(42, 63, 95); fill-opacity: 1; white-space: pre; opacity: 1;">🇩🇪 Germany</text></g><g class="xtick"><text text-anchor="start" x="0" y="409" transform="translate(264.15,0) rotate(29.999999999999996,0,403)" style="font-family: 'Open Sans', verdana, arial, sans-serif; font-size: 12px; fill: rgb(42, 63, 95); fill-opacity: 1; white-space: pre; opacity: 1;">🇫🇷 France</text></g><g class="xtick"><text text-anchor="start" x="0" y="409" transform="translate(325.05,0) rotate(29.999999999999996,0,403)" style="font-family: 'Open Sans', verdana, arial, sans-serif; font-size: 12px; fill: rgb(42, 63, 95); fill-opacity: 1; white-space: pre; opacity: 1;">🇯🇵 Japan</text></g><g class="xtick"><text text-anchor="start" x="0" y="409" transform="translate(385.95,0) rotate(29.999999999999996,0,403)" style="font-family: 'Open Sans', verdana, arial, sans-serif; font-size: 12px; fill: rgb(42, 63, 95); fill-opacity: 1; white-space: pre; opacity: 1;">🏳️ Gold spot price</text></g><g class="xtick"><text text-anchor="start" x="0" y="409" transform="translate(446.85,0) rotate(29.999999999999996,0,403)" style="font-family: 'Open Sans', verdana, arial, sans-serif; font-size: 12px; fill: rgb(42, 63, 95); fill-opacity: 1; white-space: pre; opacity: 1;">🇨🇦 Canada</text></g><g class="xtick"><text text-anchor="start" x="0" y="409" transform="translate(507.75,0) rotate(29.999999999999996,0,403)" style="font-family: 'Open Sans', verdana, arial, sans-serif; font-size: 12px; fill: rgb(42, 63, 95); fill-opacity: 1; white-space: pre; opacity: 1;">🇬🇧 United Kingdom</text></g><g class="xtick"><text text-anchor="start" x="0" y="409" transform="translate(568.65,0) rotate(29.999999999999996,0,403)" style="font-family: 'Open Sans', verdana, arial, sans-serif; font-size: 12px; fill: rgb(42, 63, 95); fill-opacity: 1; white-space: pre; opacity: 1;">🇦🇺 Australia</text></g><g class="xtick"><text text-anchor="start" x="0" y="409" transform="translate(629.55,0) rotate(29.999999999999996,0,403)" style="font-family: 'Open Sans', verdana, arial, sans-serif; font-size: 12px; fill: rgb(42, 63, 95); fill-opacity: 1; white-space: pre; opacity: 1;">🇨🇳 China</text></g></g><g class="yaxislayer-above"><g class="ytick"><text text-anchor="end" x="50" y="4.199999999999999" transform="translate(0,396)" style="font-family: 'Open Sans', verdana, arial, sans-serif; font-size: 12px; fill: rgb(42, 63, 95); fill-opacity: 1; white-space: pre; opacity: 1;">0</text></g><g class="ytick"><text text-anchor="end" x="50" y="4.199999999999999" style="font-family: 'Open Sans', verdana, arial, sans-serif; font-size: 12px; fill: rgb(42, 63, 95); fill-opacity: 1; white-space: pre; opacity: 1;" transform="translate(0,343.65)">5</text></g><g class="ytick"><text text-anchor="end" x="50" y="4.199999999999999" style="font-family: 'Open Sans', verdana, arial, sans-serif; font-size: 12px; fill: rgb(42, 63, 95); fill-opacity: 1; white-space: pre; opacity: 1;" transform="translate(0,291.28999999999996)">10</text></g><g class="ytick"><text text-anchor="end" x="50" y="4.199999999999999" style="font-family: 'Open Sans', verdana, arial, sans-serif; font-size: 12px; fill: rgb(42, 63, 95); fill-opacity: 1; white-space: pre; opacity: 1;" transform="translate(0,238.94)">15</text></g><g class="ytick"><text text-anchor="end" x="50" y="4.199999999999999" style="font-family: 'Open Sans', verdana, arial, sans-serif; font-size: 12px; fill: rgb(42, 63, 95); fill-opacity: 1; white-space: pre; opacity: 1;" transform="translate(0,186.59)">20</text></g><g class="ytick"><text text-anchor="end" x="50" y="4.199999999999999" style="font-family: 'Open Sans', verdana, arial, sans-serif; font-size: 12px; fill: rgb(42, 63, 95); fill-opacity: 1; white-space: pre; opacity: 1;" transform="translate(0,134.24)">25</text></g><g class="ytick"><text text-anchor="end" x="50" y="4.199999999999999" style="font-family: 'Open Sans', verdana, arial, sans-serif; font-size: 12px; fill: rgb(42, 63, 95); fill-opacity: 1; white-space: pre; opacity: 1;" transform="translate(0,81.88)">30</text></g></g><g class="overaxes-above"/></g></g><g class="polarlayer"/><g class="smithlayer"/><g class="ternarylayer"/><g class="geolayer"/><g class="funnelarealayer"/><g class="pielayer"/><g class="iciclelayer"/><g class="treemaplayer"/><g class="sunburstlayer"/><g class="glimages"/><defs id="topdefs-9ac2c9"><g class="clips"/></defs><g class="layer-above"><g class="imagelayer"/><g class="shapelayer"/></g><g class="infolayer"><g class="g-gtitle"/><g class="g-xtitle"/><g class="g-ytitle"><text class="ytitle" transform="rotate(-90,17.240625,218)" x="17.240625" y="218" text-anchor="middle" style="opacity: 1; font-family: 'Open Sans', verdana, arial, sans-serif; font-size: 14px; fill: rgb(42, 63, 95); fill-opacity: 1; white-space: pre;">Peso (%)</text></g></g></svg>