<svg class="main-svg" xmlns="http://www.w3.org/2000/svg" xmlns:xlink="http://www.w3.org/1999/xlink" width="700" height="500" style="" viewBox="0 0 700 500"><rect x="0" y="0" width="700" height="500" style="fill: rgb(0, 0, 0); fill-opacity: 0;"/><defs id="defs-4a5f3e"><g class="clips"><clipPath id="clip4a5f3epolar-for-traces"><path d="M174,0A174,174 0,1,0 -174,-2.1308854305163947e-14A174,174 0,1,0 174,4.2617708610327895e-14Z" transform="translate(174,174)"/></clipPath></g><g class="gradients"/><g class="patterns"/></defs><g class="bglayer"/><g class="layer-below"><g class="imagelayer"/><g class="shapelayer"/></g><g class="cartesianlayer"/><g class="polarlayer"><g class="polar"><g class="polarsublayer draglayer"/><g class="polarsublayer plotbg"><path d="M174,0A174,174 0,1,0 -174,-2.1308854305163947e-14A174,174 0,1,0 174,4.2617708610327895e-14Z" transform="translate(350,244)" style="fill: rgb(255, 255, 255); fill-opacity: 1;"/></g><g class="polarsublayer backplot"><g class="maplayer"/></g><g class="polarsublayer angular-grid" style="fill: none;"><path class="angularaxisgrid" d="M350,244L524,244" style="stroke: rgb(235, 240, 248); stroke-opacity: 1; stroke-width: 1px;"/><path class="angularaxisgrid" d="M350,244L350,70" style="stroke: rgb(235, 240, 248); stroke-opacity: 1; stroke-width: 1px;"/><path class="angularaxisgrid" d="M350,244L176,243.99999999999997" style="stroke: rgb(235, 240, 248); stroke-opacity: 1; stroke-width: 1px;"/><path class="angularaxisgrid" d="M350,244L349.99999999999994,418" style="stroke: rgb(235, 240, 248); stroke-opacity: 1; stroke-width: 1px;"/></g><g class="polarsublayer radial-grid" transform="translate(350,244)" style="fill: none;"><path class="xgrid" d="M34.8,0A34.8,34.8 0,1,0 -34.8,-4.261770861032789e-15A34.8,34.8 0,1,0 34.8,8.523541722065578e-15Z" style="stroke: rgb(240, 240, 240); stroke-opacity: 1; stroke-width: 1px;"/><path class="xgrid" d="M69.6,0A69.6,69.6 0,1,0 -69.6,-8.523541722065578e-15A69.6,69.6 0,1,0 69.6,1.7047083444131156e-14Z" style="stroke: rgb(240, 240, 240); stroke-opacity: 1; stroke-width: 1px;"/><path class="xgrid" d="M104.4,0A104.4,104.4 0,1,0 -104.4,-1.2785312583098368e-14A104.4,104.4 0,1,0 104.4,2.5570625166196736e-14Z" style="stroke: rgb(240, 240, 240); stroke-opacity: 1; stroke-width: 1px;"/><path class="xgrid" d="M139.2,0A139.2,139.2 0,1,0 -139.2,-1.7047083444131156e-14A139.2,139.2 0,1,0 139.2,3.409416688826231e-14Z" style="stroke: rgb(240, 240, 240); stroke-opacity: 1; stroke-width: 1px;"/></g><g class="polarsublayer frontplot" transform="translate(176,70)"><g class="barlayer"/><g class="scatterlayer"><g class="trace scatter trace40d7d5" style="stroke-miterlimit: 2; opacity: 1;"><g class="fills" clip-path="url(#clip4a5f3epolar-for-traces)"><g><path class="js-fill" d="M344.87,174L174,0L0,174L174,287.1L344.87,174Z" style="fill: rgb(52, 152, 219); fill-opacity: 0.16; stroke-width: 0;"/></g></g><g class="errorbars"/><g class="lines"><path class="js-line" d="M344.87,174L174,0L0,174L174,287.1L344.87,174" clip-path="url(#clip4a5f3epolar-for-traces)" style="vector-effect: none; fill: none; stroke: rgb(52, 152, 219); stroke-opacity: 0.92; stroke-width: 2.4px; opacity: 1;"/></g><g class="points"><path class="point" transform="translate(344.87,174)" d="M3,0A3,3 0 1,1 0,-3A3,3 0 0,1 3,0Z" style="opacity: 1; stroke-width: 0px; fill: rgb(52, 152, 219); fill-opacity: 0.92;"/><path class="point" transform="translate(174,0)" d="M3,0A3,3 0 1,1 0,-3A3,3 0 0,1 3,0Z" style="opacity: 1; stroke-width: 0px; fill: rgb(52, 152, 219); fill-opacity: 0.92;"/><path class="point" transform="translate(0,174)" d="M3,0A3,3 0 1,1 0,-3A3,3 0 0,1 3,0Z" style="opacity: 1; stroke-width: 0px; fill: rgb(52, 152, 219); fill-opacity: 0.92;"/><path class="point" transform="translate(174,287.1)" d="M3,0A3,3 0 1,1 0,-3A3,3 0 0,1 3,0Z" style="opacity: 1; stroke-width: 0px; fill: rgb(52, 152, 219); fill-opacity: 0.92;"/><path class="point" transform="translate(344.87,174)" d="M3,0A3,3 0 1,1 0,-3A3,3 0 0,1 3,0Z" style="opacity: 1; stroke-width: 0px; fill: rgb(52, 152, 219); fill-opacity: 0.92;"/></g><g class="text"/></g><g class="trace scatter trace364a99" style="stroke-miterlimit: 2; opacity: 1;"><g class="fills" clip-path="url(#clip4a5f3epolar-for-traces)"/><g class="errorbars"/><g class="lines"><path class="js-line" d="M348,174L174,0L0,174L174,321.9L348,174" clip-path="url(#clip4a5f3epolar-for-traces)" style="vector-effect: none; fill: none; stroke: rgb(52, 152, 219); stroke-opacity: 0.4; stroke-dasharray: 3px, 3px; stroke-width: 1.4px; opacity: 1;"/></g><g class="points" clip-path="url(#clip4a5f3epolar-for-traces)"/><g class="text" clip-path="url(#clip4a5f3epolar-for-traces)"/></g></g></g><g class="polarsublayer angular-line"><path d="M174,0A174,174 0,1,0 -174,-2.1308854305163947e-14A174,174 0,1,0 174,4.2617708610327895e-14Z" transform="translate(350,244)" stroke-width="1" style="fill: none; stroke: rgb(235, 240, 248); stroke-opacity: 1;"/></g><g class="polarsublayer radial-line"><line x1="0" y1="0" x2="174" y2="0" transform="translate(350,244)" stroke-width="1" style="fill: none; stroke: rgb(235, 240, 248); stroke-opacity: 1;"/></g><g class="polarsublayer angular-axis"><g class="angularaxistick"><text text-anchor="start" x="2.9000000000000004" y="4.199999999999999" transform="translate(524,244)" style="font-family: Arial, sans-serif; font-size: 12px; fill: rgb(44, 62, 80); fill-opacity: 1; white-space: pre; opacity: 1;">Diversificazione</text></g><g class="angularaxistick"><text text-anchor="middle" x="1.7757378587636624e-16" y="-5.300000000000001" transform="translate(350,70)" style="font-family: Arial, sans-serif; font-size: 12px; fill: rgb(44, 62, 80); fill-opacity: 1; white-space: pre; opacity: 1;">Performance</text></g><g class="angularaxistick"><text text-anchor="end" x="-2.9000000000000004" y="4.199999999999998" transform="translate(176,243.99999999999997)" style="font-family: Arial, sans-serif; font-size: 12px; fill: rgb(44, 62, 80); fill-opacity: 1; white-space: pre; opacity: 1;">Rischio</text></g><g class="angularaxistick"><text text-anchor="middle" x="-5.327213576290987e-16" y="14.9" transform="translate(349.99999999999994,418)" style="font-family: Arial, sans-serif; font-size: 12px; fill: rgb(44, 62, 80); fill-opacity: 1; white-space: pre; opacity: 1;">Semplicità</text></g></g><g class="polarsublayer radial-axis" transform="translate(350,244)"><g class="xtick"><text text-anchor="middle" x="0" y="14.9" transform="" style="font-family: Arial, sans-serif; font-size: 12px; fill: rgb(44, 62, 80); fill-opacity: 1; white-space: pre; opacity: 1;">0</text></g><g class="xtick"><text text-anchor="middle" x="0" y="14.9" transform="translate(34.8,0)" style="font-family: Arial, sans-serif; font-size: 12px; fill: rgb(44, 62, 80); fill-opacity: 1; white-space: pre; opacity: 1;">2</text></g><g class="xtick"><text text-anchor="middle" x="0" y="14.9" transform="translate(69.6,0)" style="font-family: Arial, sans-serif; font-size: 12px; fill: rgb(44, 62, 80); fill-opacity: 1; white-space: pre; opacity: 1;">4</text></g><g class="xtick"><text text-anchor="middle" x="0" y="14.9" transform="translate(104.4,0)" style="font-family: Arial, sans-serif; font-size: 12px; fill: rgb(44, 62, 80); fill-opacity: 1; white-space: pre; opacity: 1;">6</text></g><g class="xtick"><text text-anchor="middle" x="0" y="14.9" transform="translate(139.2,0)" style="font-family: Arial, sans-serif; font-size: 12px; fill: rgb(44, 62, 80); fill-opacity: 1; white-space: pre; opacity: 1;">8</text></g><g class="xtick"><text text-anchor="middle" x="0" y="14.9" transform="translate(174,0)" style="font-family: Arial, sans-serif; font-size: 12px; fill: rgb(44, 62, 80); fill-opacity: 1; white-space: pre; opacity: 1;">10</text></g></g></g></g><g class="smithlayer"/><g class="ternarylayer"/><g class="geolayer"/><g class="funnelarealayer"/><g class="pielayer"/><g class="iciclelayer"/><g class="treemaplayer"/><g class="sunburstlayer"/><g class="glimages"/><defs id="topdefs-4a5f3e"><g class="clips"/><clipPath id="legend4a5f3e"><rect width="103" height="29" x="1" y="1"/></clipPath></defs><g class="layer-above"><g class="imagelayer"/><g class="shapelayer"/></g><g class="infolayer"><g class="legend" pointer-events="all" transform="translate(297.5,456.59999999999997)"><rect class="bg" shape-rendering="crispEdges" width="104" height="30" x="0.5" y="0.5" style="stroke: rgb(224, 224, 224); stroke-opacity: 1; fill: rgb(255, 255, 255); fill-opacity: 0.8; stroke-width: 1px;"/><g class="scrollbox" transform="" clip-path="url(#legend4a5f3e)"><g class="groups"><g class="traces" transform="translate(1,15.5)" style="opacity: 1;"><text class="legendtext" text-anchor="start" x="40" y="4.680000000000001" style="font-family: Arial, sans-serif; font-size: 12px; fill: rgb(44, 62, 80); fill-opacity: 1; white-space: pre;">Portafoglio</text><g class="layers" style="opacity: 1;"><g class="legendfill"><path class="js-fill" d="M5,0h30v6h-30z" style="stroke-width: 0; fill: rgb(52, 152, 219); fill-opacity: 0.16;"/></g><g class="legendlines"><path class="js-line" d="M5,0h30" style="fill: none; stroke: rgb(52, 152, 219); stroke-opacity: 0.92; stroke-width: 2.4px;"/></g><g class="legendsymbols"><g class="legendpoints"><path class="scatterpts" transform="translate(20,0)" d="M3,0A3,3 0 1,1 0,-3A3,3 0 0,1 3,0Z" style="opacity: 1; stroke-width: 0px; fill: rgb(52, 152, 219); fill-opacity: 0.92;"/></g></g></g><rect class="legendtoggle" x="0" y="-9.5" width="100.1953125" height="19" style="fill: rgb(0, 0, 0); fill-opacity: 0;"/></g></g></g><rect class="scrollbar" rx="20" ry="3" width="0" height="0" x="0" y="0" style="fill: rgb(128, 139, 164); fill-opacity: 1;"/></g><g class="g-gtitle"><text class="gtitle" x="350" y="35" text-anchor="middle" dy="0em" style="opacity: 1; font-family: -apple-system, BlinkMacSystemFont, 'Segoe UI', Roboto, 'Helvetica Neue', Arial, sans-serif; font-size: 18px; fill: rgb(44, 62, 80); fill-opacity: 1; font-weight: bold; white-space: pre;">Dani Score</text></g><g class="g-polartitle"/><g class="annotation" data-index="0" style="opacity: 1;"><g class="annotation-text-g" transform="rotate(0,350,450.76000000000005)"><g class="cursor-pointer" transform="translate(208,442)"><rect class="bg" x="0.5" y="0.5" width="283" height="17" style="stroke-width: 1px; stroke: rgb(0, 0, 0); stroke-opacity: 0; fill: rgb(0, 0, 0); fill-opacity: 0;"/><text class="annotation-text" text-anchor="middle" x="141.9375" y="13" style="font-family: Arial, sans-serif; font-size: 12px; fill: rgb(102, 112, 133); fill-opacity: 1; white-space: pre;">Confidenza globale: 0.0/10 | Incertezza stimata: ±2.0</text></g></g></g></g></svg>