<svg class="main-svg" xmlns="http://www.w3.org/2000/svg" xmlns:xlink="http://www.w3.org/1999/xlink" width="1400" height="500" style="" viewBox="0 0 1400 500"><rect x="0" y="0" width="1400" height="500" style="fill: rgb(0, 0, 0); fill-opacity: 0;"/><defs id="defs-87e94a"><g class="clips"><clipPath id="clip87e94axyplot" class="plotclip"><rect width="1223" height="380"/></clipPath><clipPath class="axesclip" id="clip87e94ax"><rect x="43" y="0" width="1223" height="500"/></clipPath><clipPath class="axesclip" id="clip87e94ay"><rect x="0" y="60" width="1400" height="380"/></clipPath><clipPath class="axesclip" id="clip87e94axy"><rect x="43" y="60" width="1223" height="380"/></clipPath></g><g class="gradients"/><g class="patterns"/></defs><g class="bglayer"><rect class="bg" x="43" y="60" width="1223" height="380" style="fill: rgb(0, 0, 0); fill-opacity: 0; stroke-width: 0;"/></g><g class="layer-below"><g class="imagelayer"/><g class="shapelayer"/></g><g class="cartesianlayer"><g class="subplot xy"><g class="layer-subplot"><g class="shapelayer"/><g class="imagelayer"/></g><g class="minor-gridlayer"><g class="x"/><g class="y"/></g><g class="gridlayer"><g class="x"><path class="xgrid crisp" transform="translate(44.75,0)" d="M0,60v380" style="stroke: rgb(240, 240, 240); stroke-opacity: 1; stroke-width: 1px;"/><path class="xgrid crisp" transform="translate(203.74,0)" d="M0,60v380" style="stroke: rgb(240, 240, 240); stroke-opacity: 1; stroke-width: 1px;"/><path class="xgrid crisp" transform="translate(362.73,0)" d="M0,60v380" style="stroke: rgb(240, 240, 240); stroke-opacity: 1; stroke-width: 1px;"/><path class="xgrid crisp" transform="translate(523.46,0)" d="M0,60v380" style="stroke: rgb(240, 240, 240); stroke-opacity: 1; stroke-width: 1px;"/><path class="xgrid crisp" transform="translate(684.2,0)" d="M0,60v380" style="stroke: rgb(240, 240, 240); stroke-opacity: 1; stroke-width: 1px;"/><path class="xgrid crisp" transform="translate(841.44,0)" d="M0,60v380" style="stroke: rgb(240, 240, 240); stroke-opacity: 1; stroke-width: 1px;"/><path class="xgrid crisp" transform="translate(1000.43,0)" d="M0,60v380" style="stroke: rgb(240, 240, 240); stroke-opacity: 1; stroke-width: 1px;"/><path class="xgrid crisp" transform="translate(1161.17,0)" d="M0,60v380" style="stroke: rgb(240, 240, 240); stroke-opacity: 1; stroke-width: 1px;"/></g><g class="y"><path class="ygrid crisp" transform="translate(0,421)" d="M43,0h1223" style="stroke: rgb(240, 240, 240); stroke-opacity: 1; stroke-width: 1px;"/><path class="ygrid crisp" transform="translate(0,380.91)" d="M43,0h1223" style="stroke: rgb(240, 240, 240); stroke-opacity: 1; stroke-width: 1px;"/><path class="ygrid crisp" transform="translate(0,340.81)" d="M43,0h1223" style="stroke: rgb(240, 240, 240); stroke-opacity: 1; stroke-width: 1px;"/><path class="ygrid crisp" transform="translate(0,300.72)" d="M43,0h1223" style="stroke: rgb(240, 240, 240); stroke-opacity: 1; stroke-width: 1px;"/><path class="ygrid crisp" transform="translate(0,260.62)" d="M43,0h1223" style="stroke: rgb(240, 240, 240); stroke-opacity: 1; stroke-width: 1px;"/><path class="ygrid crisp" transform="translate(0,220.53)" d="M43,0h1223" style="stroke: rgb(240, 240, 240); stroke-opacity: 1; stroke-width: 1px;"/><path class="ygrid crisp" transform="translate(0,180.43)" d="M43,0h1223" style="stroke: rgb(240, 240, 240); stroke-opacity: 1; stroke-width: 1px;"/><path class="ygrid crisp" transform="translate(0,140.34)" d="M43,0h1223" style="stroke: rgb(240, 240, 240); stroke-opacity: 1; stroke-width: 1px;"/><path class="ygrid crisp" transform="translate(0,100.24000000000001)" d="M43,0h1223" style="stroke: rgb(240, 240, 240); stroke-opacity: 1; stroke-width: 1px;"/></g></g><g class="zerolinelayer"/><g class="layer-between"><g class="shapelayer"/><g class="imagelayer"/></g><path class="xlines-below"/><path class="ylines-below"/><g class="overlines-below"/><g class="xaxislayer-below"/><g class="yaxislayer-below"/><g class="overaxes-below"/><g class="overplot"><g class="xy" transform="translate(43,60)" clip-path="url(#clip87e94axyplot)"><g class="scatterlayer mlayer"><g class="trace scatter traceb35fdd" style="stroke-miterlimit: 2; opacity: 1;"><g class="fills"/><g class="errorbars"/><g class="lines"><path class="js-line" d="M0,361Q36.58,355.45 54.16,350.76C71.51,346.13 88.08,341.06 104.83,333.16C123.05,324.57 140.33,305.28 158.99,300.18C175.96,295.54 194.3,304.98 211.4,300.86C229.89,296.4 247.21,279.05 265.57,272.22C282.77,265.82 300.26,262.87 317.98,260.16C335.79,257.43 354.07,256.82 372.14,255.94C390.18,255.06 408.68,258.27 426.3,254.86C444.22,251.39 460.95,240.66 478.72,234.99C496.48,229.33 515.4,227.85 532.88,220.87C550.96,213.66 567.11,195.11 585.29,191.95C602.69,188.92 622.22,204.82 639.45,200.68C658.51,196.1 675.01,166.56 693.62,161.08C709.52,156.4 726.39,159.09 742.54,163.96C760.8,169.47 778.6,185.92 796.7,195.48C814.12,204.68 831.95,222 849.11,220.44C867.52,218.77 884.39,189.05 903.27,181.34C920.09,174.47 938.75,179.84 955.69,173.4C974.39,166.29 991.01,145.62 1009.85,138.22C1027.23,131.39 1046.84,135.81 1064.01,128.77C1082.5,121.2 1099.34,106.43 1116.42,92.54C1134.93,77.49 1151.47,53.47 1170.59,40.98Q1187.25,30.09 1223,19" style="vector-effect: none; fill: none; stroke: rgb(135, 206, 250); stroke-opacity: 0.7; stroke-width: 3px; opacity: 1;"/></g><g class="points"/><g class="text"/></g><g class="trace scatter tracebd1b4f" style="stroke-miterlimit: 2; opacity: 1;"><g class="fills"/><g class="errorbars"/><g class="lines"><path class="js-line" d="M0,361Q36.94,349.68 54.16,340.63C71.94,331.28 87.28,315.83 104.83,305.36C122.23,294.98 140.92,278.77 158.99,278.03C176.44,277.32 193.82,299.51 211.4,299.33C229.35,299.15 247.95,285 265.57,276.02C283.49,266.89 299.65,250.42 317.98,244.89C335.27,239.68 354.09,242.05 372.14,242.2C390.2,242.35 408.58,247.88 426.3,245.79C444.11,243.69 460.94,233.55 478.72,229.51C496.47,225.48 516.5,230.66 532.88,221.56C552.82,210.48 565.39,166.75 585.29,159.64C601.69,153.78 622.28,173.81 639.45,169.63C658.61,164.97 675.39,129.65 693.62,127.58C709.79,125.74 727.27,137.84 742.54,150.24C762.33,166.31 777.17,203.87 796.7,222.86C813.12,238.83 832.12,261.22 849.11,259.7C867.74,258.04 883.61,215.37 903.27,204.97C919.63,196.31 939.06,203.14 955.69,195.28C974.86,186.22 990.42,156.11 1009.85,149.65C1026.85,143.99 1046.6,156.51 1064.01,152.78C1082.18,148.88 1099.47,137.05 1116.42,125.49C1135.11,112.74 1151.27,84.42 1170.59,78.25Q1187.13,72.97 1223,83.47" style="vector-effect: none; fill: none; stroke: rgb(250, 128, 114); stroke-opacity: 0.7; stroke-width: 3px; opacity: 1;"/></g><g class="points"/><g class="text"/></g></g></g></g><path class="xlines-above crisp" d="M0,0" style="fill: none;"/><path class="ylines-above crisp" d="M0,0" style="fill: none;"/><g class="overlines-above"/><g class="xaxislayer-above"><g class="xtick"><text text-anchor="middle" x="0" y="453" transform="translate(44.75,0)" style="font-family: Arial, sans-serif; font-size: 12px; fill: rgb(44, 62, 80); fill-opacity: 1; white-space: pre; opacity: 1;">Jan 2024</text></g><g class="xtick"><text text-anchor="middle" x="0" y="453" style="font-family: Arial, sans-serif; font-size: 12px; fill: rgb(44, 62, 80); fill-opacity: 1; white-space: pre; opacity: 1;" transform="translate(203.74,0)">Apr 2024</text></g><g class="xtick"><text text-anchor="middle" x="0" y="453" style="font-family: Arial, sans-serif; font-size: 12px; fill: rgb(44, 62, 80); fill-opacity: 1; white-space: pre; opacity: 1;" transform="translate(362.73,0)">Jul 2024</text></g><g class="xtick"><text text-anchor="middle" x="0" y="453" style="font-family: Arial, sans-serif; font-size: 12px; fill: rgb(44, 62, 80); fill-opacity: 1; white-space: pre; opacity: 1;" transform="translate(523.46,0)">Oct 2024</text></g><g class="xtick"><text text-anchor="middle" x="0" y="453" style="font-family: Arial, sans-serif; font-size: 12px; fill: rgb(44, 62, 80); fill-opacity: 1; white-space: pre; opacity: 1;" transform="translate(684.2,0)">Jan 2025</text></g><g class="xtick"><text text-anchor="middle" x="0" y="453" style="font-family: Arial, sans-serif; font-size: 12px; fill: rgb(44, 62, 80); fill-opacity: 1; white-space: pre; opacity: 1;" transform="translate(841.44,0)">Apr 2025</text></g><g class="xtick"><text text-anchor="middle" x="0" y="453" style="font-family: Arial, sans-serif; font-size: 12px; fill: rgb(44, 62, 80); fill-opacity: 1; white-space: pre; opacity: 1;" transform="translate(1000.43,0)">Jul 2025</text></g><g class="xtick"><text text-anchor="middle" x="0" y="453" style="font-family: Arial, sans-serif; font-size: 12px; fill: rgb(44, 62, 80); fill-opacity: 1; white-space: pre; opacity: 1;" transform="translate(1161.17,0)">Oct 2025</text></g></g><g class="yaxislayer-above"><g class="ytick"><text text-anchor="end" x="42" y="4.199999999999999" transform="translate(0,421)" style="font-family: Arial, sans-serif; font-size: 12px; fill: rgb(44, 62, 80); fill-opacity: 1; white-space: pre; opacity: 1;">€ 100</text></g><g class="ytick"><text text-anchor="end" x="42" y="4.199999999999999" style="font-family: Arial, sans-serif; font-size: 12px; fill: rgb(44, 62, 80); fill-opacity: 1; white-space: pre; opacity: 1;" transform="translate(0,380.91)">€ 105</text></g><g class="ytick"><text text-anchor="end" x="42" y="4.199999999999999" style="font-family: Arial, sans-serif; font-size: 12px; fill: rgb(44, 62, 80); fill-opacity: 1; white-space: pre; opacity: 1;" transform="translate(0,340.81)">€ 110</text></g><g class="ytick"><text text-anchor="end" x="42" y="4.199999999999999" style="font-family: Arial, sans-serif; font-size: 12px; fill: rgb(44, 62, 80); fill-opacity: 1; white-space: pre; opacity: 1;" transform="translate(0,300.72)">€ 115</text></g><g class="ytick"><text text-anchor="end" x="42" y="4.199999999999999" style="font-family: Arial, sans-serif; font-size: 12px; fill: rgb(44, 62, 80); fill-opacity: 1; white-space: pre; opacity: 1;" transform="translate(0,260.62)">€ 120</text></g><g class="ytick"><text text-anchor="end" x="42" y="4.199999999999999" style="font-family: Arial, sans-serif; font-size: 12px; fill: rgb(44, 62, 80); fill-opacity: 1; white-space: pre; opacity: 1;" transform="translate(0,220.53)">€ 125</text></g><g class="ytick"><text text-anchor="end" x="42" y="4.199999999999999" style="font-family: Arial, sans-serif; font-size: 12px; fill: rgb(44, 62, 80); fill-opacity: 1; white-space: pre; opacity: 1;" transform="translate(0,180.43)">€ 130</text></g><g class="ytick"><text text-anchor="end" x="42" y="4.199999999999999" style="font-family: Arial, sans-serif; font-size: 12px; fill: rgb(44, 62, 80); fill-opacity: 1; white-space: pre; opacity: 1;" transform="translate(0,140.34)">€ 135</text></g><g class="ytick"><text text-anchor="end" x="42" y="4.199999999999999" style="font-family: Arial, sans-serif; font-size: 12px; fill: rgb(44, 62, 80); fill-opacity: 1; white-space: pre; opacity: 1;" transform="translate(0,100.24000000000001)">€ 140</text></g><g class="ytick"><text text-anchor="end" x="42" y="4.199999999999999" style="font-family: Arial, sans-serif; font-size: 12px; fill: rgb(44, 62, 80); fill-opacity: 1; white-space: pre; opacity: 1;" transform="translate(0,60.15)">€ 145</text></g></g><g class="overaxes-above"/></g></g><g class="polarlayer"/><g class="smithlayer"/><g class="ternarylayer"/><g class="geolayer"/><g class="funnelarealayer"/><g class="pielayer"/><g class="iciclelayer"/><g class="treemaplayer"/><g class="sunburstlayer"/><g class="glimages"/><defs id="topdefs-87e94a"><g class="clips"/><clipPath id="legend87e94a"><rect width="310" height="45" x="1" y="1"/></clipPath></defs><g class="layer-above"><g class="imagelayer"/><g class="shapelayer"/></g><g class="infolayer"><g class="legend" pointer-events="all" transform="translate(55.230000000000004,79.00000000000001)"><rect class="bg" shape-rendering="crispEdges" width="311" height="46" x="0.5" y="0.5" style="stroke: rgb(224, 224, 224); stroke-opacity: 1; fill: rgb(255, 255, 255); fill-opacity: 0.8; stroke-width: 1px;"/><g class="scrollbox" transform="" clip-path="url(#legend87e94a)"><g class="groups"><g class="traces" transform="translate(1,15.5)" style="opacity: 1;"><text class="legendtext" text-anchor="start" x="40" y="4.680000000000001" style="font-family: Arial, sans-serif; font-size: 12px; fill: rgb(44, 62, 80); fill-opacity: 1; white-space: pre;">Portfolio</text><g class="layers" style="opacity: 1;"><g class="legendfill"/><g class="legendlines"><path class="js-line" d="M5,0h30" style="fill: none; stroke: rgb(135, 206, 250); stroke-opacity: 0.7; stroke-width: 3px;"/></g><g class="legendsymbols"><g class="legendpoints"/></g></g><rect class="legendtoggle" x="0" y="-9.5" width="86.84765625" height="19" style="fill: rgb(0, 0, 0); fill-opacity: 0;"/></g><g class="traces" transform="translate(90.34765625,23.1)" style="opacity: 1;"><text class="legendtext" text-anchor="start" x="40" y="-3.1200000000000006" style="font-family: Arial, sans-serif; font-size: 12px; fill: rgb(44, 62, 80); fill-opacity: 1; white-space: pre;"><tspan class="line" dy="0em" x="40" y="-3.1200000000000006">Vanguard FTSE All-World UCITS</tspan><tspan class="line" dy="1.3em" x="40" y="-3.1200000000000006">ETF (USD) Accumulating</tspan></text><g class="layers" style="opacity: 1;"><g class="legendfill"/><g class="legendlines"><path class="js-line" d="M5,0h30" style="fill: none; stroke: rgb(250, 128, 114); stroke-opacity: 0.7; stroke-width: 3px;"/></g><g class="legendsymbols"><g class="legendpoints"/></g></g><rect class="legendtoggle" x="0" y="-17.1" width="218.125" height="34.2" style="fill: rgb(0, 0, 0); fill-opacity: 0;"/></g></g></g><rect class="scrollbar" rx="20" ry="3" width="0" height="0" x="0" y="0" style="fill: rgb(128, 139, 164); fill-opacity: 1;"/></g><g class="g-gtitle"><text class="gtitle" x="700" y="30" text-anchor="middle" dy="0em" style="opacity: 1; font-family: -apple-system, BlinkMacSystemFont, 'Segoe UI', Roboto, 'Helvetica Neue', Arial, sans-serif; font-size: 18px; fill: rgb(44, 62, 80); fill-opacity: 1; font-weight: bold; white-space: pre;">Performance del Portafoglio</text></g><g class="g-xtitle"><text class="xtitle" x="654.5" y="480.3" text-anchor="middle" style="opacity: 1; font-family: Arial, sans-serif; font-size: 14px; fill: rgb(44, 62, 80); fill-opacity: 1; white-space: pre;">Data</text></g><g class="g-ytitle"/></g><g class="menulayer"><g class="updatemenu-container" style="cursor: pointer;"><g class="updatemenu-header-group" transform="translate(1275,22)"><g class="updatemenu-header" transform="translate(1,11)" style="pointer-events: all;"><rect class="updatemenu-item-rect" rx="2" ry="2" shape-rendering="crispEdges" x="0" y="0" width="103" height="33" style="stroke: rgb(0, 0, 0); stroke-opacity: 0.3; fill: rgb(255, 255, 255); fill-opacity: 0.9; stroke-width: 1px;"/><text class="updatemenu-item-text" text-anchor="start" data-notex="1" x="12" y="19.5" style="font-family: Arial, sans-serif; font-size: 12px; fill: rgb(44, 62, 80); fill-opacity: 1; white-space: pre;">Lineare</text></g><text class="updatemenu-header-arrow" text-anchor="end" x="99" y="29.5" style="font-family: Arial, sans-serif; font-size: 12px; fill: rgb(44, 62, 80); fill-opacity: 1;">▼</text></g><g class="updatemenu-dropdown-button-group" updatemenu-active-index="-1" style="pointer-events: all;"><rect class="scrollbox-bg" opacity="0" x="0" y="0" width="0" height="0" style="pointer-events: all;"/></g></g></g></svg>