<svg class="main-svg" xmlns="http://www.w3.org/2000/svg" xmlns:xlink="http://www.w3.org/1999/xlink" width="1400" height="500" style="" viewBox="0 0 1400 500"><rect x="0" y="0" width="1400" height="500" style="fill: rgb(0, 0, 0); fill-opacity: 0;"/><defs id="defs-5804fb"><g class="clips"><clipPath id="clip5804fbxyplot" class="plotclip"><rect width="1317" height="380"/></clipPath><clipPath class="axesclip" id="clip5804fbx"><rect x="43" y="0" width="1317" height="500"/></clipPath><clipPath class="axesclip" id="clip5804fby"><rect x="0" y="60" width="1400" height="380"/></clipPath><clipPath class="axesclip" id="clip5804fbxy"><rect x="43" y="60" width="1317" height="380"/></clipPath></g><g class="gradients"/><g class="patterns"/></defs><g class="bglayer"><rect class="bg" x="43" y="60" width="1317" height="380" style="fill: rgb(0, 0, 0); fill-opacity: 0; stroke-width: 0;"/></g><g class="layer-below"><g class="imagelayer"/><g class="shapelayer"/></g><g class="cartesianlayer"><g class="subplot xy"><g class="layer-subplot"><g class="shapelayer"/><g class="imagelayer"/></g><g class="minor-gridlayer"><g class="x"/><g class="y"/></g><g class="gridlayer"><g class="x"><path class="xgrid crisp" transform="translate(158.45999999999998,0)" d="M0,60v380" style="stroke: rgb(240, 240, 240); stroke-opacity: 1; stroke-width: 1px;"/><path class="xgrid crisp" transform="translate(371.35,0)" d="M0,60v380" style="stroke: rgb(240, 240, 240); stroke-opacity: 1; stroke-width: 1px;"/><path class="xgrid crisp" transform="translate(591.45,0)" d="M0,60v380" style="stroke: rgb(240, 240, 240); stroke-opacity: 1; stroke-width: 1px;"/><path class="xgrid crisp" transform="translate(811.55,0)" d="M0,60v380" style="stroke: rgb(240, 240, 240); stroke-opacity: 1; stroke-width: 1px;"/><path class="xgrid crisp" transform="translate(1035.26,0)" d="M0,60v380" style="stroke: rgb(240, 240, 240); stroke-opacity: 1; stroke-width: 1px;"/><path class="xgrid crisp" transform="translate(1255.36,0)" d="M0,60v380" style="stroke: rgb(240, 240, 240); stroke-opacity: 1; stroke-width: 1px;"/></g><g class="y"><path class="ygrid crisp" transform="translate(0,345)" d="M43,0h1317" style="stroke: rgb(240, 240, 240); stroke-opacity: 1; stroke-width: 1px;"/><path class="ygrid crisp" transform="translate(0,250)" d="M43,0h1317" style="stroke: rgb(240, 240, 240); stroke-opacity: 1; stroke-width: 1px;"/><path class="ygrid crisp" transform="translate(0,155)" d="M43,0h1317" style="stroke: rgb(240, 240, 240); stroke-opacity: 1; stroke-width: 1px;"/></g></g><g class="zerolinelayer"/><g class="layer-between"><g class="shapelayer"/><g class="imagelayer"/></g><path class="xlines-below"/><path class="ylines-below"/><g class="overlines-below"/><g class="xaxislayer-below"/><g class="yaxislayer-below"/><g class="overaxes-below"/><g class="overplot"><g class="xy" transform="translate(43,60)" clip-path="url(#clip5804fbxyplot)"><g class="scatterlayer mlayer"><g class="trace scatter traceb760e6" style="stroke-miterlimit: 2;"><g class="fills"><g><path class="js-fill" d="M1317,190L0,190L0,4.18Q74.57,4.92 111.85,5.05C149.14,5.18 187.37,5.19 223.71,4.96C258.24,4.74 290.22,3.09 324.74,3.75C361.09,4.44 399.65,6.51 436.59,9.37C473.01,12.19 508.45,17.14 544.84,20.73C581.81,24.38 619.69,28.35 656.7,31.08C693.05,33.76 728.55,36.2 764.94,37.04C801.91,37.89 839.53,35.2 876.8,36.05C914.1,36.9 951.66,41.16 988.65,42.16C1025.01,43.14 1060.57,43.92 1096.9,42.1C1133.92,40.24 1171.76,34.32 1208.75,30.9Q1245.12,27.54 1317,21.72" style="fill: rgb(52, 152, 219); fill-opacity: 0.2; stroke-width: 0;"/></g></g><g class="errorbars"/><g class="lines"><path class="js-line" d="M0,4.18Q74.57,4.92 111.85,5.05C149.14,5.18 187.37,5.19 223.71,4.96C258.24,4.74 290.22,3.09 324.74,3.75C361.09,4.44 399.65,6.51 436.59,9.37C473.01,12.19 508.45,17.14 544.84,20.73C581.81,24.38 619.69,28.35 656.7,31.08C693.05,33.76 728.55,36.2 764.94,37.04C801.91,37.89 839.53,35.2 876.8,36.05C914.1,36.9 951.66,41.16 988.65,42.16C1025.01,43.14 1060.57,43.92 1096.9,42.1C1133.92,40.24 1171.76,34.32 1208.75,30.9Q1245.12,27.54 1317,21.72" style="vector-effect: none; fill: none; stroke: rgb(135, 206, 250); stroke-opacity: 0.7; stroke-width: 3px; opacity: 1;"/></g><g class="points"/><g class="text"/></g></g></g></g><path class="xlines-above crisp" d="M0,0" style="fill: none;"/><path class="ylines-above crisp" d="M0,0" style="fill: none;"/><g class="overlines-above"/><g class="xaxislayer-above"><g class="xtick"><text text-anchor="middle" x="0" y="453" transform="translate(158.45999999999998,0)" style="font-family: Arial, sans-serif; font-size: 12px; fill: rgb(44, 62, 80); fill-opacity: 1; white-space: pre; opacity: 1;">Jan 2025</text></g><g class="xtick"><text text-anchor="middle" x="0" y="453" style="font-family: Arial, sans-serif; font-size: 12px; fill: rgb(44, 62, 80); fill-opacity: 1; white-space: pre; opacity: 1;" transform="translate(371.35,0)">Mar 2025</text></g><g class="xtick"><text text-anchor="middle" x="0" y="453" style="font-family: Arial, sans-serif; font-size: 12px; fill: rgb(44, 62, 80); fill-opacity: 1; white-space: pre; opacity: 1;" transform="translate(591.45,0)">May 2025</text></g><g class="xtick"><text text-anchor="middle" x="0" y="453" style="font-family: Arial, sans-serif; font-size: 12px; fill: rgb(44, 62, 80); fill-opacity: 1; white-space: pre; opacity: 1;" transform="translate(811.55,0)">Jul 2025</text></g><g class="xtick"><text text-anchor="middle" x="0" y="453" style="font-family: Arial, sans-serif; font-size: 12px; fill: rgb(44, 62, 80); fill-opacity: 1; white-space: pre; opacity: 1;" transform="translate(1035.26,0)">Sep 2025</text></g><g class="xtick"><text text-anchor="middle" x="0" y="453" style="font-family: Arial, sans-serif; font-size: 12px; fill: rgb(44, 62, 80); fill-opacity: 1; white-space: pre; opacity: 1;" transform="translate(1255.36,0)">Nov 2025</text></g></g><g class="yaxislayer-above"><g class="ytick"><text text-anchor="end" x="42" y="4.199999999999999" transform="translate(0,440)" style="font-family: Arial, sans-serif; font-size: 12px; fill: rgb(44, 62, 80); fill-opacity: 1; white-space: pre; opacity: 1;">−1.00</text></g><g class="ytick"><text text-anchor="end" x="42" y="4.199999999999999" style="font-family: Arial, sans-serif; font-size: 12px; fill: rgb(44, 62, 80); fill-opacity: 1; white-space: pre; opacity: 1;" transform="translate(0,345)">−0.50</text></g><g class="ytick"><text text-anchor="end" x="42" y="4.199999999999999" style="font-family: Arial, sans-serif; font-size: 12px; fill: rgb(44, 62, 80); fill-opacity: 1; white-space: pre; opacity: 1;" transform="translate(0,250)">0.00</text></g><g class="ytick"><text text-anchor="end" x="42" y="4.199999999999999" style="font-family: Arial, sans-serif; font-size: 12px; fill: rgb(44, 62, 80); fill-opacity: 1; white-space: pre; opacity: 1;" transform="translate(0,155)">0.50</text></g><g class="ytick"><text text-anchor="end" x="42" y="4.199999999999999" style="font-family: Arial, sans-serif; font-size: 12px; fill: rgb(44, 62, 80); fill-opacity: 1; white-space: pre; opacity: 1;" transform="translate(0,60)">1.00</text></g></g><g class="overaxes-above"/></g></g><g class="polarlayer"/><g class="smithlayer"/><g class="ternarylayer"/><g class="geolayer"/><g class="funnelarealayer"/><g class="pielayer"/><g class="iciclelayer"/><g class="treemaplayer"/><g class="sunburstlayer"/><g class="glimages"/><defs id="topdefs-5804fb"><g class="clips"/></defs><g class="layer-above"><g class="imagelayer"/><g class="shapelayer"/></g><g class="infolayer"><g class="g-gtitle"><text class="gtitle" x="700" y="30" text-anchor="middle" dy="0em" style="opacity: 1; font-family: -apple-system, BlinkMacSystemFont, 'Segoe UI', Roboto, 'Helvetica Neue', Arial, sans-serif; font-size: 18px; fill: rgb(44, 62, 80); fill-opacity: 1; font-weight: bold; white-space: pre;">Correlazione Portafoglio vs Benchmark</text></g><g class="g-xtitle"><text class="xtitle" x="701.5" y="480.3" text-anchor="middle" style="opacity: 1; font-family: Arial, sans-serif; font-size: 14px; fill: rgb(44, 62, 80); fill-opacity: 1; white-space: pre;">Data</text></g><g class="g-ytitle"/></g></svg>