<svg class="main-svg" xmlns="http://www.w3.org/2000/svg" xmlns:xlink="http://www.w3.org/1999/xlink" width="700" height="500" style="" viewBox="0 0 700 500"><rect x="0" y="0" width="700" height="500" style="fill: rgb(0, 0, 0); fill-opacity: 0;"/><defs id="defs-153cbe"><g class="clips"><clipPath id="clip153cbexyplot" class="plotclip"><rect width="578" height="337"/></clipPath><clipPath class="axesclip" id="clip153cbex"><rect x="51" y="0" width="578" height="500"/></clipPath><clipPath class="axesclip" id="clip153cbey"><rect x="0" y="40" width="700" height="337"/></clipPath><clipPath class="axesclip" id="clip153cbexy"><rect x="51" y="40" width="578" height="337"/></clipPath></g><g class="gradients"/><g class="patterns"/></defs><g class="bglayer"><rect class="bg" x="51" y="40" width="578" height="337" style="fill: rgb(0, 0, 0); fill-opacity: 0; stroke-width: 0;"/></g><g class="layer-below"><g class="imagelayer"/><g class="shapelayer"/></g><g class="cartesianlayer"><g class="subplot xy"><g class="layer-subplot"><g class="shapelayer"/><g class="imagelayer"/></g><g class="minor-gridlayer"><g class="x"/><g class="y"/></g><g class="gridlayer"><g class="x"><path class="xgrid crisp" transform="translate(79.9,0)" d="M0,40v337" style="stroke: rgb(255, 255, 255); stroke-opacity: 1; stroke-width: 1px;"/><path class="xgrid crisp" transform="translate(137.7,0)" d="M0,40v337" style="stroke: rgb(255, 255, 255); stroke-opacity: 1; stroke-width: 1px;"/><path class="xgrid crisp" transform="translate(195.5,0)" d="M0,40v337" style="stroke: rgb(255, 255, 255); stroke-opacity: 1; stroke-width: 1px;"/><path class="xgrid crisp" transform="translate(253.3,0)" d="M0,40v337" style="stroke: rgb(255, 255, 255); stroke-opacity: 1; stroke-width: 1px;"/><path class="xgrid crisp" transform="translate(311.1,0)" d="M0,40v337" style="stroke: rgb(255, 255, 255); stroke-opacity: 1; stroke-width: 1px;"/><path class="xgrid crisp" transform="translate(368.9,0)" d="M0,40v337" style="stroke: rgb(255, 255, 255); stroke-opacity: 1; stroke-width: 1px;"/><path class="xgrid crisp" transform="translate(426.7,0)" d="M0,40v337" style="stroke: rgb(255, 255, 255); stroke-opacity: 1; stroke-width: 1px;"/><path class="xgrid crisp" transform="translate(484.5,0)" d="M0,40v337" style="stroke: rgb(255, 255, 255); stroke-opacity: 1; stroke-width: 1px;"/><path class="xgrid crisp" transform="translate(542.3,0)" d="M0,40v337" style="stroke: rgb(255, 255, 255); stroke-opacity: 1; stroke-width: 1px;"/><path class="xgrid crisp" transform="translate(600.1,0)" d="M0,40v337" style="stroke: rgb(255, 255, 255); stroke-opacity: 1; stroke-width: 1px;"/></g><g class="y"><path class="ygrid crisp" transform="translate(0,327.44)" d="M51,0h578" style="stroke: rgb(255, 255, 255); stroke-opacity: 1; stroke-width: 1px;"/><path class="ygrid crisp" transform="translate(0,277.88)" d="M51,0h578" style="stroke: rgb(255, 255, 255); stroke-opacity: 1; stroke-width: 1px;"/><path class="ygrid crisp" transform="translate(0,228.32)" d="M51,0h578" style="stroke: rgb(255, 255, 255); stroke-opacity: 1; stroke-width: 1px;"/><path class="ygrid crisp" transform="translate(0,178.76)" d="M51,0h578" style="stroke: rgb(255, 255, 255); stroke-opacity: 1; stroke-width: 1px;"/><path class="ygrid crisp" transform="translate(0,129.20999999999998)" d="M51,0h578" style="stroke: rgb(255, 255, 255); stroke-opacity: 1; stroke-width: 1px;"/><path class="ygrid crisp" transform="translate(0,79.65)" d="M51,0h578" style="stroke: rgb(255, 255, 255); stroke-opacity: 1; stroke-width: 1px;"/></g></g><g class="zerolinelayer"/><g class="layer-between"><g class="shapelayer"/><g class="imagelayer"/></g><path class="xlines-below"/><path class="ylines-below"/><g class="overlines-below"/><g class="xaxislayer-below"/><g class="yaxislayer-below"/><g class="overaxes-below"/><g class="overplot"><g class="xy" transform="translate(51,40)" clip-path="url(#clip153cbexyplot)"><g class="barlayer mlayer"><g class="trace bars" style="opacity: 1;"><g class="points"><g class="point"><path d="M5.78,337V24.85A 8,8 0 0 1 13.780000000000001,16.85H44.02A 8,8 0 0 1 52.02,24.85V337Z" style="vector-effect: none; opacity: 1; stroke-width: 1px; fill: rgb(174, 198, 207); fill-opacity: 1; stroke: rgb(255, 255, 255); stroke-opacity: 1;"/><text class="bartext bartext-inside" text-anchor="middle" data-notex="1" x="0" y="0" style="font-family: 'Open Sans', verdana, arial, sans-serif; font-size: 12px; fill: rgb(68, 68, 68); fill-opacity: 1; white-space: pre;" transform="translate(28.737890625000002,31.2930570288906)">32.3%</text></g><g class="point"><path d="M63.58,337V143.1A 8,8 0 0 1 71.58,135.1H101.82A 8,8 0 0 1 109.82,143.1V337Z" style="vector-effect: none; opacity: 1; stroke-width: 1px; fill: rgb(255, 209, 220); fill-opacity: 1; stroke: rgb(255, 255, 255); stroke-opacity: 1;"/><text class="bartext bartext-inside" text-anchor="middle" data-notex="1" x="0" y="0" style="font-family: 'Open Sans', verdana, arial, sans-serif; font-size: 12px; fill: rgb(68, 68, 68); fill-opacity: 1; white-space: pre;" transform="translate(86.53789062499999,149.5430570288906)">20.4%</text></g><g class="point"><path d="M121.38,337V193.85A 8,8 0 0 1 129.38,185.85H159.62A 8,8 0 0 1 167.62,193.85V337Z" style="vector-effect: none; opacity: 1; stroke-width: 1px; fill: rgb(255, 179, 222); fill-opacity: 1; stroke: rgb(255, 255, 255); stroke-opacity: 1;"/><text class="bartext bartext-inside" text-anchor="middle" data-notex="1" x="0" y="0" style="font-family: 'Open Sans', verdana, arial, sans-serif; font-size: 12px; fill: rgb(68, 68, 68); fill-opacity: 1; white-space: pre;" transform="translate(144.337890625,200.2930570288906)">15.2%</text></g><g class="point"><path d="M179.18,337V288.7A 8,8 0 0 1 187.18,280.7H217.42A 8,8 0 0 1 225.42,288.7V337Z" style="vector-effect: none; opacity: 1; stroke-width: 1px; fill: rgb(181, 234, 234); fill-opacity: 1; stroke: rgb(255, 255, 255); stroke-opacity: 1;"/><text class="bartext bartext-inside" text-anchor="middle" data-notex="1" x="0" y="0" style="font-family: 'Open Sans', verdana, arial, sans-serif; font-size: 12px; fill: rgb(68, 68, 68); fill-opacity: 1; white-space: pre;" transform="translate(202.1388671875,294.86639892760195)">5.7%</text></g><g class="point"><path d="M236.98,337V299.7A 8,8 0 0 1 244.98,291.7H275.22A 8,8 0 0 1 283.22,299.7V337Z" style="vector-effect: none; opacity: 1; stroke-width: 1px; fill: rgb(194, 240, 194); fill-opacity: 1; stroke: rgb(255, 255, 255); stroke-opacity: 1;"/><text class="bartext bartext-inside" text-anchor="middle" data-notex="1" x="0" y="0" style="font-family: 'Open Sans', verdana, arial, sans-serif; font-size: 12px; fill: rgb(68, 68, 68); fill-opacity: 1; white-space: pre;" transform="translate(259.9388671875,305.86639892760195)">4.6%</text></g><g class="point"><path d="M294.78,337V311.1A 8,8 0 0 1 302.78,303.1H333.02A 8,8 0 0 1 341.02,311.1V337Z" style="vector-effect: none; opacity: 1; stroke-width: 1px; fill: rgb(255, 188, 179); fill-opacity: 1; stroke: rgb(255, 255, 255); stroke-opacity: 1;"/><text class="bartext bartext-inside" text-anchor="middle" data-notex="1" x="0" y="0" style="font-family: 'Open Sans', verdana, arial, sans-serif; font-size: 12px; fill: rgb(68, 68, 68); fill-opacity: 1; white-space: pre;" transform="translate(317.7388671875,317.266398927602)">3.4%</text></g><g class="point"><path d="M352.58,337V315.36A 8,8 0 0 1 360.58,307.36H390.82A 8,8 0 0 1 398.82,315.36V337Z" style="vector-effect: none; opacity: 1; stroke-width: 1px; fill: rgb(255, 204, 153); fill-opacity: 1; stroke: rgb(255, 255, 255); stroke-opacity: 1;"/><text class="bartext bartext-inside" text-anchor="middle" data-notex="1" x="0" y="0" style="font-family: 'Open Sans', verdana, arial, sans-serif; font-size: 12px; fill: rgb(68, 68, 68); fill-opacity: 1; white-space: pre;" transform="translate(375.5388671875,321.526398927602)">3.0%</text></g><g class="point"><path d="M410.38,337V317.05A 8,8 0 0 1 418.38,309.05H448.62A 8,8 0 0 1 456.62,317.05V337Z" style="vector-effect: none; opacity: 1; stroke-width: 1px; fill: rgb(217, 234, 211); fill-opacity: 1; stroke: rgb(255, 255, 255); stroke-opacity: 1;"/><text class="bartext bartext-inside" text-anchor="middle" data-notex="1" x="0" y="0" style="font-family: 'Open Sans', verdana, arial, sans-serif; font-size: 12px; fill: rgb(68, 68, 68); fill-opacity: 1; white-space: pre;" transform="translate(433.3388671875,323.216398927602)">2.8%</text></g><g class="point"><path d="M468.18,337V324.38A 8,8 0 0 1 476.18,316.38H506.41999999999996A 8,8 0 0 1 514.42,324.38V337Z" style="vector-effect: none; opacity: 1; stroke-width: 1px; fill: rgb(213, 166, 189); fill-opacity: 1; stroke: rgb(255, 255, 255); stroke-opacity: 1;"/><text class="bartext bartext-inside" text-anchor="middle" data-notex="1" x="0" y="0" style="font-family: 'Open Sans', verdana, arial, sans-serif; font-size: 12px; fill: rgb(68, 68, 68); fill-opacity: 1; white-space: pre;" transform="translate(491.13886718749995,330.54639892760196)">2.1%</text></g><g class="point"><path d="M525.98,337V326.37A 8,8 0 0 1 533.98,318.37H564.22A 8,8 0 0 1 572.22,326.37V337Z" style="vector-effect: none; opacity: 1; stroke-width: 1px; fill: rgb(255, 102, 102); fill-opacity: 1; stroke: rgb(255, 255, 255); stroke-opacity: 1;"/><text class="bartext bartext-inside" text-anchor="middle" data-notex="1" x="0" y="0" style="font-family: 'Open Sans', verdana, arial, sans-serif; font-size: 12px; fill: rgb(68, 68, 68); fill-opacity: 1; white-space: pre;" transform="translate(548.9546351841518,332.04337893921297)scale(0.9021428571428568)">1.9%</text></g></g></g></g></g></g><path class="xlines-above crisp" d="M0,0" style="fill: none;"/><path class="ylines-above crisp" d="M0,0" style="fill: none;"/><g class="overlines-above"/><g class="xaxislayer-above"><g class="xtick"><text text-anchor="start" x="0" y="390" transform="translate(79.9,0) rotate(29.999999999999996,0,384)" style="font-family: 'Open Sans', verdana, arial, sans-serif; font-size: 12px; fill: rgb(42, 63, 95); fill-opacity: 1; white-space: pre; opacity: 1;">🇺🇸 💵 United States Dollar</text></g><g class="xtick"><text text-anchor="start" x="0" y="390" transform="translate(137.7,0) rotate(29.999999999999996,0,384)" style="font-family: 'Open Sans', verdana, arial, sans-serif; font-size: 12px; fill: rgb(42, 63, 95); fill-opacity: 1; white-space: pre; opacity: 1;">🇪🇺 💶 Euro</text></g><g class="xtick"><text text-anchor="start" x="0" y="390" transform="translate(195.5,0) rotate(29.999999999999996,0,384)" style="font-family: 'Open Sans', verdana, arial, sans-serif; font-size: 12px; fill: rgb(42, 63, 95); fill-opacity: 1; white-space: pre; opacity: 1;">🌍 💱 Silver spot price</text></g><g class="xtick"><text text-anchor="start" x="0" y="390" transform="translate(253.3,0) rotate(29.999999999999996,0,384)" style="font-family: 'Open Sans', verdana, arial, sans-serif; font-size: 12px; fill: rgb(42, 63, 95); fill-opacity: 1; white-space: pre; opacity: 1;">🇯🇵 💴 Japanese Yen</text></g><g class="xtick"><text text-anchor="start" x="0" y="390" transform="translate(311.1,0) rotate(29.999999999999996,0,384)" style="font-family: 'Open Sans', verdana, arial, sans-serif; font-size: 12px; fill: rgb(42, 63, 95); fill-opacity: 1; white-space: pre; opacity: 1;">🇨🇦 C$ Canadian Dollar</text></g><g class="xtick"><text text-anchor="start" x="0" y="390" transform="translate(368.9,0) rotate(29.999999999999996,0,384)" style="font-family: 'Open Sans', verdana, arial, sans-serif; font-size: 12px; fill: rgb(42, 63, 95); fill-opacity: 1; white-space: pre; opacity: 1;">🇬🇧 £ British Pound</text></g><g class="xtick"><text text-anchor="start" x="0" y="390" transform="translate(426.7,0) rotate(29.999999999999996,0,384)" style="font-family: 'Open Sans', verdana, arial, sans-serif; font-size: 12px; fill: rgb(42, 63, 95); fill-opacity: 1; white-space: pre; opacity: 1;">🇦🇺 A$ Australian Dollar</text></g><g class="xtick"><text text-anchor="start" x="0" y="390" transform="translate(484.5,0) rotate(29.999999999999996,0,384)" style="font-family: 'Open Sans', verdana, arial, sans-serif; font-size: 12px; fill: rgb(42, 63, 95); fill-opacity: 1; white-space: pre; opacity: 1;">🇨🇳 ¥ Chinese Yuan</text></g><g class="xtick"><text text-anchor="start" x="0" y="390" transform="translate(542.3,0) rotate(29.999999999999996,0,384)" style="font-family: 'Open Sans', verdana, arial, sans-serif; font-size: 12px; fill: rgb(42, 63, 95); fill-opacity: 1; white-space: pre; opacity: 1;">🇹🇼 NT$ New Taiwan Dollar</text></g><g class="xtick"><text text-anchor="start" x="0" y="390" transform="translate(600.1,0) rotate(29.999999999999996,0,384)" style="font-family: 'Open Sans', verdana, arial, sans-serif; font-size: 12px; fill: rgb(42, 63, 95); fill-opacity: 1; white-space: pre; opacity: 1;">🇨🇭 Fr Swiss Franc</text></g></g><g class="yaxislayer-above"><g class="ytick"><text text-anchor="end" x="50" y="4.199999999999999" transform="translate(0,377)" style="font-family: 'Open Sans', verdana, arial, sans-serif; font-size: 12px; fill: rgb(42, 63, 95); fill-opacity: 1; white-space: pre; opacity: 1;">0</text></g><g class="ytick"><text text-anchor="end" x="50" y="4.199999999999999" style="font-family: 'Open Sans', verdana, arial, sans-serif; font-size: 12px; fill: rgb(42, 63, 95); fill-opacity: 1; white-space: pre; opacity: 1;" transform="translate(0,327.44)">5</text></g><g class="ytick"><text text-anchor="end" x="50" y="4.199999999999999" style="font-family: 'Open Sans', verdana, arial, sans-serif; font-size: 12px; fill: rgb(42, 63, 95); fill-opacity: 1; white-space: pre; opacity: 1;" transform="translate(0,277.88)">10</text></g><g class="ytick"><text text-anchor="end" x="50" y="4.199999999999999" style="font-family: 'Open Sans', verdana, arial, sans-serif; font-size: 12px; fill: rgb(42, 63, 95); fill-opacity: 1; white-space: pre; opacity: 1;" transform="translate(0,228.32)">15</text></g><g class="ytick"><text text-anchor="end" x="50" y="4.199999999999999" style="font-family: 'Open Sans', verdana, arial, sans-serif; font-size: 12px; fill: rgb(42, 63, 95); fill-opacity: 1; white-space: pre; opacity: 1;" transform="translate(0,178.76)">20</text></g><g class="ytick"><text text-anchor="end" x="50" y="4.199999999999999" style="font-family: 'Open Sans', verdana, arial, sans-serif; font-size: 12px; fill: rgb(42, 63, 95); fill-opacity: 1; white-space: pre; opacity: 1;" transform="translate(0,129.20999999999998)">25</text></g><g class="ytick"><text text-anchor="end" x="50" y="4.199999999999999" style="font-family: 'Open Sans', verdana, arial, sans-serif; font-size: 12px; fill: rgb(42, 63, 95); fill-opacity: 1; white-space: pre; opacity: 1;" transform="translate(0,79.65)">30</text></g></g><g class="overaxes-above"/></g></g><g class="polarlayer"/><g class="smithlayer"/><g class="ternarylayer"/><g class="geolayer"/><g class="funnelarealayer"/><g class="pielayer"/><g class="iciclelayer"/><g class="treemaplayer"/><g class="sunburstlayer"/><g class="glimages"/><defs id="topdefs-153cbe"><g class="clips"/></defs><g class="layer-above"><g class="imagelayer"/><g class="shapelayer"/></g><g class="infolayer"><g class="g-gtitle"/><g class="g-xtitle"/><g class="g-ytitle"><text class="ytitle" transform="rotate(-90,17.240625,208.5)" x="17.240625" y="208.5" text-anchor="middle" style="opacity: 1; font-family: 'Open Sans', verdana, arial, sans-serif; font-size: 14px; fill: rgb(42, 63, 95); fill-opacity: 1; white-space: pre;">Peso (%)</text></g></g></svg>