<svg class="main-svg" xmlns="http://www.w3.org/2000/svg" xmlns:xlink="http://www.w3.org/1999/xlink" width="1400" height="500" style="" viewBox="0 0 1400 500"><rect x="0" y="0" width="1400" height="500" style="fill: rgb(255, 255, 255); fill-opacity: 1;"/><defs id="defs-4aa9ff"><g class="clips"><clipPath id="clip4aa9ffxyplot" class="plotclip"><rect width="1300" height="380"/></clipPath><clipPath class="axesclip" id="clip4aa9ffx"><rect x="60" y="0" width="1300" height="500"/></clipPath><clipPath class="axesclip" id="clip4aa9ffy"><rect x="0" y="60" width="1400" height="380"/></clipPath><clipPath class="axesclip" id="clip4aa9ffxy"><rect x="60" y="60" width="1300" height="380"/></clipPath></g><g class="gradients"/><g class="patterns"/></defs><g class="bglayer"/><g class="layer-below"><g class="imagelayer"/><g class="shapelayer"/></g><g class="cartesianlayer"><g class="subplot xy"><g class="layer-subplot"><g class="shapelayer"/><g class="imagelayer"/></g><g class="minor-gridlayer"><g class="x"/><g class="y"/></g><g class="gridlayer"><g class="x"><path class="xgrid crisp" transform="translate(165.95999999999998,0)" d="M0,60v380" style="stroke: rgb(128, 128, 128); stroke-opacity: 0.2; stroke-width: 1px;"/><path class="xgrid crisp" transform="translate(440.17,0)" d="M0,60v380" style="stroke: rgb(128, 128, 128); stroke-opacity: 0.2; stroke-width: 1px;"/><path class="xgrid crisp" transform="translate(714.37,0)" d="M0,60v380" style="stroke: rgb(128, 128, 128); stroke-opacity: 0.2; stroke-width: 1px;"/><path class="xgrid crisp" transform="translate(988.58,0)" d="M0,60v380" style="stroke: rgb(128, 128, 128); stroke-opacity: 0.2; stroke-width: 1px;"/><path class="xgrid crisp" transform="translate(1262.79,0)" d="M0,60v380" style="stroke: rgb(128, 128, 128); stroke-opacity: 0.2; stroke-width: 1px;"/></g><g class="y"><path class="ygrid crisp" transform="translate(0,335.5)" d="M60,0h1300" style="stroke: rgb(128, 128, 128); stroke-opacity: 0.2; stroke-width: 1px;"/><path class="ygrid crisp" transform="translate(0,250)" d="M60,0h1300" style="stroke: rgb(128, 128, 128); stroke-opacity: 0.2; stroke-width: 1px;"/><path class="ygrid crisp" transform="translate(0,164.5)" d="M60,0h1300" style="stroke: rgb(128, 128, 128); stroke-opacity: 0.2; stroke-width: 1px;"/><path class="ygrid crisp" transform="translate(0,79)" d="M60,0h1300" style="stroke: rgb(128, 128, 128); stroke-opacity: 0.2; stroke-width: 1px;"/></g></g><g class="zerolinelayer"><path class="yzl zl crisp" transform="translate(0,421)" d="M60,0h1300" style="stroke: rgb(255, 255, 255); stroke-opacity: 1; stroke-width: 2px;"/></g><g class="layer-between"><g class="shapelayer"/><g class="imagelayer"/></g><path class="xlines-below"/><path class="ylines-below"/><g class="overlines-below"/><g class="xaxislayer-below"/><g class="yaxislayer-below"/><g class="overaxes-below"/><g class="overplot"><g class="xy" transform="translate(60,60)" clip-path="url(#clip4aa9ffxyplot)"><g class="barlayer mlayer"><g class="trace bars" style="opacity: 1;"><g class="points"><g class="point"><path d="M0,0Z" style="vector-effect: none; opacity: 1; stroke-width: 0px; fill: rgb(135, 206, 250); fill-opacity: 0.7;"/></g><g class="point"><path d="M0,0Z" style="vector-effect: none; opacity: 1; stroke-width: 0px; fill: rgb(135, 206, 250); fill-opacity: 0.7;"/></g><g class="point"><path d="M333.85,361V34A 15,15 0 0 1 348.85,19H357.67A 15,15 0 0 1 372.67,34V361Z" style="vector-effect: none; opacity: 1; stroke-width: 0px; fill: rgb(135, 206, 250); fill-opacity: 0.7;"/></g><g class="point"><path d="M0,0Z" style="vector-effect: none; opacity: 1; stroke-width: 0px; fill: rgb(135, 206, 250); fill-opacity: 0.7;"/></g><g class="point"><path d="M536.82,361V205A 15,15 0 0 1 551.82,190H560.64A 15,15 0 0 1 575.64,205V361Z" style="vector-effect: none; opacity: 1; stroke-width: 0px; fill: rgb(135, 206, 250); fill-opacity: 0.7;"/></g><g class="point"><path d="M0,0Z" style="vector-effect: none; opacity: 1; stroke-width: 0px; fill: rgb(135, 206, 250); fill-opacity: 0.7;"/></g><g class="point"><path d="M739.79,361V34A 15,15 0 0 1 754.79,19H763.61A 15,15 0 0 1 778.61,34V361Z" style="vector-effect: none; opacity: 1; stroke-width: 0px; fill: rgb(135, 206, 250); fill-opacity: 0.7;"/></g><g class="point"><path d="M841.27,361V34A 15,15 0 0 1 856.27,19H865.09A 15,15 0 0 1 880.09,34V361Z" style="vector-effect: none; opacity: 1; stroke-width: 0px; fill: rgb(135, 206, 250); fill-opacity: 0.7;"/></g><g class="point"><path d="M0,0Z" style="vector-effect: none; opacity: 1; stroke-width: 0px; fill: rgb(135, 206, 250); fill-opacity: 0.7;"/></g></g></g><g class="trace bars" style="opacity: 1;"><g class="points"><g class="point"><path d="M174.01,361V34A 15,15 0 0 1 189.01,19H197.83A 15,15 0 0 1 212.83,34V361Z" style="vector-effect: none; opacity: 1; stroke-width: 0px; fill: rgb(250, 128, 114); fill-opacity: 0.7;"/></g><g class="point"><path d="M275.5,361V205A 15,15 0 0 1 290.5,190H299.32A 15,15 0 0 1 314.32,205V361Z" style="vector-effect: none; opacity: 1; stroke-width: 0px; fill: rgb(250, 128, 114); fill-opacity: 0.7;"/></g><g class="point"><path d="M376.98,361V205A 15,15 0 0 1 391.98,190H400.8A 15,15 0 0 1 415.8,205V361Z" style="vector-effect: none; opacity: 1; stroke-width: 0px; fill: rgb(250, 128, 114); fill-opacity: 0.7;"/></g><g class="point"><path d="M0,0Z" style="vector-effect: none; opacity: 1; stroke-width: 0px; fill: rgb(250, 128, 114); fill-opacity: 0.7;"/></g><g class="point"><path d="M0,0Z" style="vector-effect: none; opacity: 1; stroke-width: 0px; fill: rgb(250, 128, 114); fill-opacity: 0.7;"/></g><g class="point"><path d="M681.44,361V205A 15,15 0 0 1 696.44,190H705.25A 15,15 0 0 1 720.25,205V361Z" style="vector-effect: none; opacity: 1; stroke-width: 0px; fill: rgb(250, 128, 114); fill-opacity: 0.7;"/></g><g class="point"><path d="M782.92,361V205A 15,15 0 0 1 797.92,190H806.74A 15,15 0 0 1 821.74,205V361Z" style="vector-effect: none; opacity: 1; stroke-width: 0px; fill: rgb(250, 128, 114); fill-opacity: 0.7;"/></g><g class="point"><path d="M0,0Z" style="vector-effect: none; opacity: 1; stroke-width: 0px; fill: rgb(250, 128, 114); fill-opacity: 0.7;"/></g><g class="point"><path d="M985.89,361V205A 15,15 0 0 1 1000.89,190H1009.71A 15,15 0 0 1 1024.71,205V361Z" style="vector-effect: none; opacity: 1; stroke-width: 0px; fill: rgb(250, 128, 114); fill-opacity: 0.7;"/></g></g></g></g><g class="scatterlayer mlayer"><g class="trace scatter trace17d89a" style="stroke-miterlimit: 2; opacity: 1;"><g class="fills"/><g class="errorbars"/><g class="lines"><path class="js-line" d="M759.01,361L759.01,19" style="vector-effect: none; fill: none; stroke: rgb(135, 206, 250); stroke-opacity: 0.7; stroke-dasharray: 9px, 9px; stroke-width: 2px; opacity: 1;"/></g><g class="points"/><g class="text"/></g><g class="trace scatter tracef2a960" style="stroke-miterlimit: 2; opacity: 1;"><g class="fills"/><g class="errorbars"/><g class="lines"><path class="js-line" d="M121.11,350.57L153.24,346.01L157.83,345.24L189.96,338.92L194.55,337.87L222.09,330.76L226.68,329.43L254.22,320.52L258.81,318.87L286.35,308.03L290.93,306.05L318.47,293.24L323.06,290.95L350.6,276.28L355.19,273.69L387.32,254.64L391.91,251.8L442.4,219.5L446.99,216.54L492.88,187.67L497.47,184.93L525.01,169.46L529.6,167.07L552.55,156.09L557.14,154.1L580.09,145.41L584.68,143.93L603.04,138.94L607.63,137.94L625.99,134.92L630.58,134.42L648.94,133.48L653.53,133.51L671.88,134.68L676.47,135.23L694.83,138.46L699.42,139.52L717.78,144.71L722.37,146.24L740.73,153.21L745.32,155.16L768.27,165.98L772.86,168.35L800.4,183.68L804.99,186.4L841.71,209.25L846.29,212.2L924.32,261.72L928.91,264.46L961.04,282.66L965.63,285.11L993.17,298.86L997.76,300.99L1025.3,312.82L1029.89,314.62L1034.47,316.38" style="vector-effect: none; fill: none; stroke: rgb(135, 206, 250); stroke-opacity: 0.7; stroke-width: 2px; opacity: 1;"/></g><g class="points"/><g class="text"/></g><g class="trace scatter traceddbfc5" style="stroke-miterlimit: 2; opacity: 1;"><g class="fills"/><g class="errorbars"/><g class="lines"><path class="js-line" d="M415.35,361L415.35,19" style="vector-effect: none; fill: none; stroke: rgb(250, 128, 114); stroke-opacity: 0.7; stroke-dasharray: 9px, 9px; stroke-width: 2px; opacity: 1;"/></g><g class="points"/><g class="text"/></g><g class="trace scatter trace8bc308" style="stroke-miterlimit: 2; opacity: 1;"><g class="fills"/><g class="errorbars"/><g class="lines"><path class="js-line" d="M121.11,284.8L286.35,237.45L290.93,236.27L336.83,225.42L341.42,224.45L378.14,217.48L382.73,216.72L414.86,212.18L419.45,211.65L451.58,208.77L456.17,208.48L488.29,207.37L492.88,207.34L525.01,208.05L529.6,208.28L561.73,210.78L566.32,211.26L598.45,215.44L603.04,216.15L639.76,222.77L644.35,223.71L685.65,233.08L690.24,234.22L736.14,246.38L740.73,247.66L814.17,269.02L818.76,270.37L901.37,294.1L905.96,295.35L961.04,309.51L965.63,310.61L1016.12,321.83L1020.71,322.77L1034.47,325.49" style="vector-effect: none; fill: none; stroke: rgb(250, 128, 114); stroke-opacity: 0.7; stroke-width: 2px; opacity: 1;"/></g><g class="points"/><g class="text"/></g><g class="trace scatter tracea652bd" style="stroke-miterlimit: 2; opacity: 1;"><g class="fills"/><g class="errorbars"/><g class="lines"><path class="js-line" d="M11,361L11,19" style="vector-effect: none; fill: none; stroke: rgb(100, 100, 100); stroke-opacity: 0.6; stroke-dasharray: 3px, 3px; stroke-width: 1px; opacity: 1;"/></g><g class="points"/><g class="text"/></g><g class="trace scatter trace43306c" style="stroke-miterlimit: 2; opacity: 1;"><g class="fills"/><g class="errorbars"/><g class="lines"><path class="js-line" d="M224,361L224,19" style="vector-effect: none; fill: none; stroke: rgb(100, 100, 100); stroke-opacity: 0.6; stroke-dasharray: 3px, 3px; stroke-width: 1px; opacity: 1;"/></g><g class="points"/><g class="text"/></g><g class="trace scatter trace26794a" style="stroke-miterlimit: 2; opacity: 1;"><g class="fills"/><g class="errorbars"/><g class="lines"><path class="js-line" d="M437,361L437,19" style="vector-effect: none; fill: none; stroke: rgb(100, 100, 100); stroke-opacity: 0.6; stroke-dasharray: 3px, 3px; stroke-width: 1px; opacity: 1;"/></g><g class="points"/><g class="text"/></g><g class="trace scatter trace98557c" style="stroke-miterlimit: 2; opacity: 1;"><g class="fills"/><g class="errorbars"/><g class="lines"><path class="js-line" d="M863,361L863,19" style="vector-effect: none; fill: none; stroke: rgb(100, 100, 100); stroke-opacity: 0.6; stroke-dasharray: 3px, 3px; stroke-width: 1px; opacity: 1;"/></g><g class="points"/><g class="text"/></g><g class="trace scatter tracee42342" style="stroke-miterlimit: 2; opacity: 1;"><g class="fills"/><g class="errorbars"/><g class="lines"><path class="js-line" d="M1076,361L1076,19" style="vector-effect: none; fill: none; stroke: rgb(100, 100, 100); stroke-opacity: 0.6; stroke-dasharray: 3px, 3px; stroke-width: 1px; opacity: 1;"/></g><g class="points"/><g class="text"/></g><g class="trace scatter trace0f307b" style="stroke-miterlimit: 2; opacity: 1;"><g class="fills"/><g class="errorbars"/><g class="lines"><path class="js-line" d="M1289,361L1289,19" style="vector-effect: none; fill: none; stroke: rgb(100, 100, 100); stroke-opacity: 0.6; stroke-dasharray: 3px, 3px; stroke-width: 1px; opacity: 1;"/></g><g class="points"/><g class="text"/></g></g></g></g><path class="xlines-above crisp" d="M59,440.5H1360" style="fill: none; stroke-width: 1px; stroke: rgb(0, 0, 0); stroke-opacity: 0.3;"/><path class="ylines-above crisp" d="M59.5,60V440" style="fill: none; stroke-width: 1px; stroke: rgb(0, 0, 0); stroke-opacity: 0.3;"/><g class="overlines-above"/><g class="xaxislayer-above"><g class="xtick"><text text-anchor="middle" x="0" y="455.4" transform="translate(165.95999999999998,0)" style="font-family: 'Open Sans', verdana, arial, sans-serif; font-size: 12px; fill: rgb(42, 63, 95); fill-opacity: 1; white-space: pre; opacity: 1;">5</text></g><g class="xtick"><text text-anchor="middle" x="0" y="455.4" style="font-family: 'Open Sans', verdana, arial, sans-serif; font-size: 12px; fill: rgb(42, 63, 95); fill-opacity: 1; white-space: pre; opacity: 1;" transform="translate(440.17,0)">10</text></g><g class="xtick"><text text-anchor="middle" x="0" y="455.4" style="font-family: 'Open Sans', verdana, arial, sans-serif; font-size: 12px; fill: rgb(42, 63, 95); fill-opacity: 1; white-space: pre; opacity: 1;" transform="translate(714.37,0)">15</text></g><g class="xtick"><text text-anchor="middle" x="0" y="455.4" style="font-family: 'Open Sans', verdana, arial, sans-serif; font-size: 12px; fill: rgb(42, 63, 95); fill-opacity: 1; white-space: pre; opacity: 1;" transform="translate(988.58,0)">20</text></g><g class="xtick"><text text-anchor="middle" x="0" y="455.4" style="font-family: 'Open Sans', verdana, arial, sans-serif; font-size: 12px; fill: rgb(42, 63, 95); fill-opacity: 1; white-space: pre; opacity: 1;" transform="translate(1262.79,0)">25</text></g></g><g class="yaxislayer-above"><g class="ytick"><text text-anchor="end" x="56.6" y="4.199999999999999" transform="translate(0,421)" style="font-family: 'Open Sans', verdana, arial, sans-serif; font-size: 12px; fill: rgb(42, 63, 95); fill-opacity: 1; white-space: pre; opacity: 1;">0</text></g><g class="ytick"><text text-anchor="end" x="56.6" y="4.199999999999999" style="font-family: 'Open Sans', verdana, arial, sans-serif; font-size: 12px; fill: rgb(42, 63, 95); fill-opacity: 1; white-space: pre; opacity: 1;" transform="translate(0,335.5)">0.5</text></g><g class="ytick"><text text-anchor="end" x="56.6" y="4.199999999999999" style="font-family: 'Open Sans', verdana, arial, sans-serif; font-size: 12px; fill: rgb(42, 63, 95); fill-opacity: 1; white-space: pre; opacity: 1;" transform="translate(0,250)">1</text></g><g class="ytick"><text text-anchor="end" x="56.6" y="4.199999999999999" style="font-family: 'Open Sans', verdana, arial, sans-serif; font-size: 12px; fill: rgb(42, 63, 95); fill-opacity: 1; white-space: pre; opacity: 1;" transform="translate(0,164.5)">1.5</text></g><g class="ytick"><text text-anchor="end" x="56.6" y="4.199999999999999" style="font-family: 'Open Sans', verdana, arial, sans-serif; font-size: 12px; fill: rgb(42, 63, 95); fill-opacity: 1; white-space: pre; opacity: 1;" transform="translate(0,79)">2</text></g></g><g class="overaxes-above"/></g></g><g class="polarlayer"/><g class="smithlayer"/><g class="ternarylayer"/><g class="geolayer"/><g class="funnelarealayer"/><g class="pielayer"/><g class="iciclelayer"/><g class="treemaplayer"/><g class="sunburstlayer"/><g class="glimages"/><defs id="topdefs-4aa9ff"><g class="clips"/><clipPath id="legend4aa9ff"><rect width="358" height="48" x="1" y="1"/></clipPath></defs><g class="layer-above"><g class="imagelayer"/><g class="shapelayer"/></g><g class="infolayer"><g class="legend" pointer-events="all" transform="translate(73,63.800000000000004)"><rect class="bg" shape-rendering="crispEdges" width="359" height="49" x="0.5" y="0.5" style="stroke: rgb(0, 0, 0); stroke-opacity: 0.2; fill: rgb(255, 255, 255); fill-opacity: 0.8; stroke-width: 1px;"/><g class="scrollbox" transform="" clip-path="url(#legend4aa9ff)"><g class="groups"><g class="traces" transform="translate(1,15.5)" style="opacity: 1;"><text class="legendtext" text-anchor="start" x="40" y="4.680000000000001" style="font-family: 'Open Sans', verdana, arial, sans-serif; font-size: 12px; fill: rgb(42, 63, 95); fill-opacity: 1; white-space: pre;">Portfolio</text><g class="layers" style="opacity: 1;"><g class="legendfill"/><g class="legendlines"/><g class="legendsymbols"><g class="legendpoints"><path class="legendundefined" d="M6,3a3,3,0,0,1-3,3H-3a3,3,0,0,1-3-3V-3a3,3,0,0,1,3-3H3a3,3,0,0,1,3,3Z" transform="translate(20,0)" style="stroke-width: 0px; fill: rgb(135, 206, 250); fill-opacity: 0.7;"/></g></g></g><rect class="legendtoggle" x="0" y="-9.5" width="352.984375" height="19" style="fill: rgb(0, 0, 0); fill-opacity: 0;"/></g><g class="traces" transform="translate(1,34.5)" style="opacity: 1;"><text class="legendtext" text-anchor="start" x="40" y="4.680000000000001" style="font-family: 'Open Sans', verdana, arial, sans-serif; font-size: 12px; fill: rgb(42, 63, 95); fill-opacity: 1; white-space: pre;">Vanguard FTSE All-World UCITS ETF (USD) Accumulating</text><g class="layers" style="opacity: 1;"><g class="legendfill"/><g class="legendlines"/><g class="legendsymbols"><g class="legendpoints"><path class="legendundefined" d="M6,3a3,3,0,0,1-3,3H-3a3,3,0,0,1-3-3V-3a3,3,0,0,1,3-3H3a3,3,0,0,1,3,3Z" transform="translate(20,0)" style="stroke-width: 0px; fill: rgb(250, 128, 114); fill-opacity: 0.7;"/></g></g></g><rect class="legendtoggle" x="0" y="-9.5" width="352.984375" height="19" style="fill: rgb(0, 0, 0); fill-opacity: 0;"/></g></g></g><rect class="scrollbar" rx="20" ry="3" width="0" height="0" x="0" y="0" style="fill: rgb(128, 139, 164); fill-opacity: 1;"/></g><g class="g-gtitle"><text class="gtitle" x="70" y="30" text-anchor="start" dy="0em" style="opacity: 1; font-family: Arial, sans-serif; font-size: 16px; fill: rgb(44, 62, 80); fill-opacity: 1; white-space: pre;">Distribuzione Rendimenti (%) - Rendimenti 1 Anno</text></g><g class="g-xtitle"><text class="xtitle" x="710" y="482.700390625" text-anchor="middle" style="opacity: 1; font-family: 'Open Sans', verdana, arial, sans-serif; font-size: 14px; fill: rgb(42, 63, 95); fill-opacity: 1; white-space: pre;">Rendimenti (%) (Intervalli)</text></g><g class="g-ytitle"><text class="ytitle" transform="rotate(-90,20.512109375,250)" x="20.512109375" y="250" text-anchor="middle" style="opacity: 1; font-family: 'Open Sans', verdana, arial, sans-serif; font-size: 14px; fill: rgb(42, 63, 95); fill-opacity: 1; white-space: pre;">Frequenza</text></g><g class="annotation" data-index="0" style="opacity: 1;"><g class="annotation-text-g" transform="rotate(0,71,71.5)"><g class="cursor-pointer" transform="translate(60,64)"><rect class="bg" x="0.5" y="0.5" width="21" height="14" style="stroke-width: 1px; stroke: rgb(0, 0, 0); stroke-opacity: 0; fill: rgb(0, 0, 0); fill-opacity: 0;"/><text class="annotation-text" text-anchor="middle" x="10.7890625" y="11" style="font-family: 'Open Sans', verdana, arial, sans-serif; font-size: 10px; fill: rgb(80, 80, 80); fill-opacity: 0.9; white-space: pre;">−3σ</text></g></g></g><g class="annotation" data-index="1" style="opacity: 1;"><g class="annotation-text-g" transform="rotate(0,284,71.5)"><g class="cursor-pointer" transform="translate(273,64)"><rect class="bg" x="0.5" y="0.5" width="21" height="14" style="stroke-width: 1px; stroke: rgb(0, 0, 0); stroke-opacity: 0; fill: rgb(0, 0, 0); fill-opacity: 0;"/><text class="annotation-text" text-anchor="middle" x="10.7890625" y="11" style="font-family: 'Open Sans', verdana, arial, sans-serif; font-size: 10px; fill: rgb(80, 80, 80); fill-opacity: 0.9; white-space: pre;">−2σ</text></g></g></g><g class="annotation" data-index="2" style="opacity: 1;"><g class="annotation-text-g" transform="rotate(0,497,71.5)"><g class="cursor-pointer" transform="translate(486,64)"><rect class="bg" x="0.5" y="0.5" width="21" height="14" style="stroke-width: 1px; stroke: rgb(0, 0, 0); stroke-opacity: 0; fill: rgb(0, 0, 0); fill-opacity: 0;"/><text class="annotation-text" text-anchor="middle" x="10.7890625" y="11" style="font-family: 'Open Sans', verdana, arial, sans-serif; font-size: 10px; fill: rgb(80, 80, 80); fill-opacity: 0.9; white-space: pre;">−1σ</text></g></g></g><g class="annotation" data-index="3" style="opacity: 1;"><g class="annotation-text-g" transform="rotate(0,923,71.5)"><g class="cursor-pointer" transform="translate(912,64)"><rect class="bg" x="0.5" y="0.5" width="21" height="14" style="stroke-width: 1px; stroke: rgb(0, 0, 0); stroke-opacity: 0; fill: rgb(0, 0, 0); fill-opacity: 0;"/><text class="annotation-text" text-anchor="middle" x="10.7890625" y="11" style="font-family: 'Open Sans', verdana, arial, sans-serif; font-size: 10px; fill: rgb(80, 80, 80); fill-opacity: 0.9; white-space: pre;">+1σ</text></g></g></g><g class="annotation" data-index="4" style="opacity: 1;"><g class="annotation-text-g" transform="rotate(0,1136,71.5)"><g class="cursor-pointer" transform="translate(1125,64)"><rect class="bg" x="0.5" y="0.5" width="21" height="14" style="stroke-width: 1px; stroke: rgb(0, 0, 0); stroke-opacity: 0; fill: rgb(0, 0, 0); fill-opacity: 0;"/><text class="annotation-text" text-anchor="middle" x="10.7890625" y="11" style="font-family: 'Open Sans', verdana, arial, sans-serif; font-size: 10px; fill: rgb(80, 80, 80); fill-opacity: 0.9; white-space: pre;">+2σ</text></g></g></g><g class="annotation" data-index="5" style="opacity: 1;"><g class="annotation-text-g" transform="rotate(0,1349,71.5)"><g class="cursor-pointer" transform="translate(1338,64)"><rect class="bg" x="0.5" y="0.5" width="21" height="14" style="stroke-width: 1px; stroke: rgb(0, 0, 0); stroke-opacity: 0; fill: rgb(0, 0, 0); fill-opacity: 0;"/><text class="annotation-text" text-anchor="middle" x="10.7890625" y="11" style="font-family: 'Open Sans', verdana, arial, sans-serif; font-size: 10px; fill: rgb(80, 80, 80); fill-opacity: 0.9; white-space: pre;">+3σ</text></g></g></g></g></svg>