<svg class="main-svg" xmlns="http://www.w3.org/2000/svg" xmlns:xlink="http://www.w3.org/1999/xlink" width="700" height="500" style="" viewBox="0 0 700 500"><rect x="0" y="0" width="700" height="500" style="fill: rgb(0, 0, 0); fill-opacity: 0;"/><defs id="defs-d4ba31"><g class="clips"><clipPath id="clipd4ba31xyplot" class="plotclip"><rect width="524" height="306"/></clipPath><clipPath class="axesclip" id="clipd4ba31x"><rect x="54" y="0" width="524" height="500"/></clipPath><clipPath class="axesclip" id="clipd4ba31y"><rect x="0" y="60" width="700" height="306"/></clipPath><clipPath class="axesclip" id="clipd4ba31xy"><rect x="54" y="60" width="524" height="306"/></clipPath></g><g class="gradients"/><g class="patterns"/></defs><g class="bglayer"><rect class="bg" x="54" y="60" width="524" height="306" style="fill: rgb(0, 0, 0); fill-opacity: 0; stroke-width: 0;"/></g><g class="layer-below"><g class="imagelayer"/><g class="shapelayer"/></g><g class="cartesianlayer"><g class="subplot xy"><g class="layer-subplot"><g class="shapelayer"/><g class="imagelayer"/></g><g class="minor-gridlayer"><g class="x"/><g class="y"/></g><g class="gridlayer"><g class="x"><path class="xgrid crisp" transform="translate(80.2,0)" d="M0,60v306" style="stroke: rgb(255, 255, 255); stroke-opacity: 1; stroke-width: 1px;"/><path class="xgrid crisp" transform="translate(132.6,0)" d="M0,60v306" style="stroke: rgb(255, 255, 255); stroke-opacity: 1; stroke-width: 1px;"/><path class="xgrid crisp" transform="translate(185,0)" d="M0,60v306" style="stroke: rgb(255, 255, 255); stroke-opacity: 1; stroke-width: 1px;"/><path class="xgrid crisp" transform="translate(237.4,0)" d="M0,60v306" style="stroke: rgb(255, 255, 255); stroke-opacity: 1; stroke-width: 1px;"/><path class="xgrid crisp" transform="translate(289.8,0)" d="M0,60v306" style="stroke: rgb(255, 255, 255); stroke-opacity: 1; stroke-width: 1px;"/><path class="xgrid crisp" transform="translate(342.2,0)" d="M0,60v306" style="stroke: rgb(255, 255, 255); stroke-opacity: 1; stroke-width: 1px;"/><path class="xgrid crisp" transform="translate(394.6,0)" d="M0,60v306" style="stroke: rgb(255, 255, 255); stroke-opacity: 1; stroke-width: 1px;"/><path class="xgrid crisp" transform="translate(447,0)" d="M0,60v306" style="stroke: rgb(255, 255, 255); stroke-opacity: 1; stroke-width: 1px;"/><path class="xgrid crisp" transform="translate(499.4,0)" d="M0,60v306" style="stroke: rgb(255, 255, 255); stroke-opacity: 1; stroke-width: 1px;"/><path class="xgrid crisp" transform="translate(551.8,0)" d="M0,60v306" style="stroke: rgb(255, 255, 255); stroke-opacity: 1; stroke-width: 1px;"/></g><g class="y"><path class="ygrid crisp" transform="translate(0,308.55)" d="M54,0h524" style="stroke: rgb(255, 255, 255); stroke-opacity: 1; stroke-width: 1px;"/><path class="ygrid crisp" transform="translate(0,251.1)" d="M54,0h524" style="stroke: rgb(255, 255, 255); stroke-opacity: 1; stroke-width: 1px;"/><path class="ygrid crisp" transform="translate(0,193.65)" d="M54,0h524" style="stroke: rgb(255, 255, 255); stroke-opacity: 1; stroke-width: 1px;"/><path class="ygrid crisp" transform="translate(0,136.2)" d="M54,0h524" style="stroke: rgb(255, 255, 255); stroke-opacity: 1; stroke-width: 1px;"/><path class="ygrid crisp" transform="translate(0,78.75)" d="M54,0h524" style="stroke: rgb(255, 255, 255); stroke-opacity: 1; stroke-width: 1px;"/></g></g><g class="zerolinelayer"/><g class="layer-between"><g class="shapelayer"/><g class="imagelayer"/></g><path class="xlines-below"/><path class="ylines-below"/><g class="overlines-below"/><g class="xaxislayer-below"/><g class="yaxislayer-below"/><g class="overaxes-below"/><g class="overplot"><g class="xy" transform="translate(54,60)" clip-path="url(#clipd4ba31xyplot)"><g class="barlayer mlayer"><g class="trace bars" style="opacity: 1;"><g class="points"><g class="point"><path d="M5.24,306V23.3A 8,8 0 0 1 13.24,15.3H39.16A 8,8 0 0 1 47.16,23.3V306Z" style="vector-effect: none; opacity: 1; stroke-width: 1px; fill: rgb(174, 198, 207); fill-opacity: 1; stroke: rgb(255, 255, 255); stroke-opacity: 1;"/><text class="bartext bartext-inside" text-anchor="middle" data-notex="1" x="0" y="0" style="font-family: 'Open Sans', verdana, arial, sans-serif; font-size: 12px; fill: rgb(68, 68, 68); fill-opacity: 1; white-space: pre;" transform="translate(26.0388671875,29.3781959022034)">2.5%</text></g><g class="point"><path d="M57.64,306V79.6A 8,8 0 0 1 65.64,71.6H91.56A 8,8 0 0 1 99.56,79.6V306Z" style="vector-effect: none; opacity: 1; stroke-width: 1px; fill: rgb(255, 209, 220); fill-opacity: 1; stroke: rgb(255, 255, 255); stroke-opacity: 1;"/><text class="bartext bartext-inside" text-anchor="middle" data-notex="1" x="0" y="0" style="font-family: 'Open Sans', verdana, arial, sans-serif; font-size: 12px; fill: rgb(68, 68, 68); fill-opacity: 1; white-space: pre;" transform="translate(78.4388671875,85.6781959022034)">2.0%</text></g><g class="point"><path d="M110.04,306V100.28A 8,8 0 0 1 118.04,92.28H143.96A 8,8 0 0 1 151.96,100.28V306Z" style="vector-effect: none; opacity: 1; stroke-width: 1px; fill: rgb(255, 179, 222); fill-opacity: 1; stroke: rgb(255, 255, 255); stroke-opacity: 1;"/><text class="bartext bartext-inside" text-anchor="middle" data-notex="1" x="0" y="0" style="font-family: 'Open Sans', verdana, arial, sans-serif; font-size: 12px; fill: rgb(68, 68, 68); fill-opacity: 1; white-space: pre;" transform="translate(130.8388671875,106.3581959022034)">1.9%</text></g><g class="point"><path d="M162.44,306V185.31A 8,8 0 0 1 170.44,177.31H196.36A 8,8 0 0 1 204.36,185.31V306Z" style="vector-effect: none; opacity: 1; stroke-width: 1px; fill: rgb(181, 234, 234); fill-opacity: 1; stroke: rgb(255, 255, 255); stroke-opacity: 1;"/><text class="bartext bartext-inside" text-anchor="middle" data-notex="1" x="0" y="0" style="font-family: 'Open Sans', verdana, arial, sans-serif; font-size: 12px; fill: rgb(68, 68, 68); fill-opacity: 1; white-space: pre;" transform="translate(183.2388671875,191.3881959022034)">1.1%</text></g><g class="point"><path d="M214.84,306V204.84A 8,8 0 0 1 222.84,196.84H248.76A 8,8 0 0 1 256.76,204.84V306Z" style="vector-effect: none; opacity: 1; stroke-width: 1px; fill: rgb(194, 240, 194); fill-opacity: 1; stroke: rgb(255, 255, 255); stroke-opacity: 1;"/><text class="bartext bartext-inside" text-anchor="middle" data-notex="1" x="0" y="0" style="font-family: 'Open Sans', verdana, arial, sans-serif; font-size: 12px; fill: rgb(68, 68, 68); fill-opacity: 1; white-space: pre;" transform="translate(235.6388671875,210.9181959022034)">0.9%</text></g><g class="point"><path d="M267.24,306V211.74A 8,8 0 0 1 275.24,203.74H301.16A 8,8 0 0 1 309.16,211.74V306Z" style="vector-effect: none; opacity: 1; stroke-width: 1px; fill: rgb(255, 188, 179); fill-opacity: 1; stroke: rgb(255, 255, 255); stroke-opacity: 1;"/><text class="bartext bartext-inside" text-anchor="middle" data-notex="1" x="0" y="0" style="font-family: 'Open Sans', verdana, arial, sans-serif; font-size: 12px; fill: rgb(68, 68, 68); fill-opacity: 1; white-space: pre;" transform="translate(288.03886718750005,217.8181959022034)">0.9%</text></g><g class="point"><path d="M319.64,306V225.53A 8,8 0 0 1 327.64,217.53H353.56A 8,8 0 0 1 361.56,225.53V306Z" style="vector-effect: none; opacity: 1; stroke-width: 1px; fill: rgb(255, 204, 153); fill-opacity: 1; stroke: rgb(255, 255, 255); stroke-opacity: 1;"/><text class="bartext bartext-inside" text-anchor="middle" data-notex="1" x="0" y="0" style="font-family: 'Open Sans', verdana, arial, sans-serif; font-size: 12px; fill: rgb(68, 68, 68); fill-opacity: 1; white-space: pre;" transform="translate(340.4388671875,231.6081959022034)">0.8%</text></g><g class="point"><path d="M372.04,306V242.76A 8,8 0 0 1 380.04,234.76H405.96A 8,8 0 0 1 413.96,242.76V306Z" style="vector-effect: none; opacity: 1; stroke-width: 1px; fill: rgb(217, 234, 211); fill-opacity: 1; stroke: rgb(255, 255, 255); stroke-opacity: 1;"/><text class="bartext bartext-inside" text-anchor="middle" data-notex="1" x="0" y="0" style="font-family: 'Open Sans', verdana, arial, sans-serif; font-size: 12px; fill: rgb(68, 68, 68); fill-opacity: 1; white-space: pre;" transform="translate(392.8388671875,248.83819590220338)">0.6%</text></g><g class="point"><path d="M424.44,306V248.51A 8,8 0 0 1 432.44,240.51H458.36A 8,8 0 0 1 466.36,248.51V306Z" style="vector-effect: none; opacity: 1; stroke-width: 1px; fill: rgb(213, 166, 189); fill-opacity: 1; stroke: rgb(255, 255, 255); stroke-opacity: 1;"/><text class="bartext bartext-inside" text-anchor="middle" data-notex="1" x="0" y="0" style="font-family: 'Open Sans', verdana, arial, sans-serif; font-size: 12px; fill: rgb(68, 68, 68); fill-opacity: 1; white-space: pre;" transform="translate(445.2388671875,254.58819590220338)">0.6%</text></g><g class="point"><path d="M476.84,306V249.66A 8,8 0 0 1 484.84,241.66H510.76A 8,8 0 0 1 518.76,249.66V306Z" style="vector-effect: none; opacity: 1; stroke-width: 1px; fill: rgb(255, 102, 102); fill-opacity: 1; stroke: rgb(255, 255, 255); stroke-opacity: 1;"/><text class="bartext bartext-inside" text-anchor="middle" data-notex="1" x="0" y="0" style="font-family: 'Open Sans', verdana, arial, sans-serif; font-size: 12px; fill: rgb(68, 68, 68); fill-opacity: 1; white-space: pre;" transform="translate(497.63886718749995,255.7381959022034)">0.6%</text></g></g></g></g></g></g><path class="xlines-above crisp" d="M0,0" style="fill: none;"/><path class="ylines-above crisp" d="M0,0" style="fill: none;"/><g class="overlines-above"/><g class="xaxislayer-above"><g class="xtick"><text text-anchor="start" x="0" y="379" transform="translate(80.2,0) rotate(29.999999999999996,0,373)" style="font-family: 'Open Sans', verdana, arial, sans-serif; font-size: 12px; fill: rgb(42, 63, 95); fill-opacity: 1; white-space: pre; opacity: 1;">NVIDIA CORP</text></g><g class="xtick"><text text-anchor="start" x="0" y="379" transform="translate(132.6,0) rotate(29.999999999999996,0,373)" style="font-family: 'Open Sans', verdana, arial, sans-serif; font-size: 12px; fill: rgb(42, 63, 95); fill-opacity: 1; white-space: pre; opacity: 1;">MICROSOFT CORP</text></g><g class="xtick"><text text-anchor="start" x="0" y="379" transform="translate(185,0) rotate(29.999999999999996,0,373)" style="font-family: 'Open Sans', verdana, arial, sans-serif; font-size: 12px; fill: rgb(42, 63, 95); fill-opacity: 1; white-space: pre; opacity: 1;">APPLE INC</text></g><g class="xtick"><text text-anchor="start" x="0" y="379" transform="translate(237.4,0) rotate(29.999999999999996,0,373)" style="font-family: 'Open Sans', verdana, arial, sans-serif; font-size: 12px; fill: rgb(42, 63, 95); fill-opacity: 1; white-space: pre; opacity: 1;">AMAZON COM INC</text></g><g class="xtick"><text text-anchor="start" x="0" y="379" transform="translate(289.8,0) rotate(29.999999999999996,0,373)" style="font-family: 'Open Sans', verdana, arial, sans-serif; font-size: 12px; fill: rgb(42, 63, 95); fill-opacity: 1; white-space: pre; opacity: 1;">TAIWAN SEMICONDUCTOR...</text></g><g class="xtick"><text text-anchor="start" x="0" y="379" transform="translate(342.2,0) rotate(29.999999999999996,0,373)" style="font-family: 'Open Sans', verdana, arial, sans-serif; font-size: 12px; fill: rgb(42, 63, 95); fill-opacity: 1; white-space: pre; opacity: 1;">META PLATFORMS INC C...</text></g><g class="xtick"><text text-anchor="start" x="0" y="379" transform="translate(394.6,0) rotate(29.999999999999996,0,373)" style="font-family: 'Open Sans', verdana, arial, sans-serif; font-size: 12px; fill: rgb(42, 63, 95); fill-opacity: 1; white-space: pre; opacity: 1;">BROADCOM INC</text></g><g class="xtick"><text text-anchor="start" x="0" y="379" transform="translate(447,0) rotate(29.999999999999996,0,373)" style="font-family: 'Open Sans', verdana, arial, sans-serif; font-size: 12px; fill: rgb(42, 63, 95); fill-opacity: 1; white-space: pre; opacity: 1;">ALPHABET INC CLASS A</text></g><g class="xtick"><text text-anchor="start" x="0" y="379" transform="translate(499.4,0) rotate(29.999999999999996,0,373)" style="font-family: 'Open Sans', verdana, arial, sans-serif; font-size: 12px; fill: rgb(42, 63, 95); fill-opacity: 1; white-space: pre; opacity: 1;">SAP</text></g><g class="xtick"><text text-anchor="start" x="0" y="379" transform="translate(551.8,0) rotate(29.999999999999996,0,373)" style="font-family: 'Open Sans', verdana, arial, sans-serif; font-size: 12px; fill: rgb(42, 63, 95); fill-opacity: 1; white-space: pre; opacity: 1;">BERKSHIRE HATHAWAY I...</text></g></g><g class="yaxislayer-above"><g class="ytick"><text text-anchor="end" x="53" y="4.199999999999999" transform="translate(0,366)" style="font-family: 'Open Sans', verdana, arial, sans-serif; font-size: 12px; fill: rgb(42, 63, 95); fill-opacity: 1; white-space: pre; opacity: 1;">0</text></g><g class="ytick"><text text-anchor="end" x="53" y="4.199999999999999" style="font-family: 'Open Sans', verdana, arial, sans-serif; font-size: 12px; fill: rgb(42, 63, 95); fill-opacity: 1; white-space: pre; opacity: 1;" transform="translate(0,308.55)">0.5</text></g><g class="ytick"><text text-anchor="end" x="53" y="4.199999999999999" style="font-family: 'Open Sans', verdana, arial, sans-serif; font-size: 12px; fill: rgb(42, 63, 95); fill-opacity: 1; white-space: pre; opacity: 1;" transform="translate(0,251.1)">1</text></g><g class="ytick"><text text-anchor="end" x="53" y="4.199999999999999" style="font-family: 'Open Sans', verdana, arial, sans-serif; font-size: 12px; fill: rgb(42, 63, 95); fill-opacity: 1; white-space: pre; opacity: 1;" transform="translate(0,193.65)">1.5</text></g><g class="ytick"><text text-anchor="end" x="53" y="4.199999999999999" style="font-family: 'Open Sans', verdana, arial, sans-serif; font-size: 12px; fill: rgb(42, 63, 95); fill-opacity: 1; white-space: pre; opacity: 1;" transform="translate(0,136.2)">2</text></g><g class="ytick"><text text-anchor="end" x="53" y="4.199999999999999" style="font-family: 'Open Sans', verdana, arial, sans-serif; font-size: 12px; fill: rgb(42, 63, 95); fill-opacity: 1; white-space: pre; opacity: 1;" transform="translate(0,78.75)">2.5</text></g></g><g class="overaxes-above"/></g></g><g class="polarlayer"/><g class="smithlayer"/><g class="ternarylayer"/><g class="geolayer"/><g class="funnelarealayer"/><g class="pielayer"/><g class="iciclelayer"/><g class="treemaplayer"/><g class="sunburstlayer"/><g class="glimages"/><defs id="topdefs-d4ba31"><g class="clips"/></defs><g class="layer-above"><g class="imagelayer"/><g class="shapelayer"/></g><g class="infolayer"><g class="g-gtitle"><text class="gtitle" x="350" y="30" text-anchor="middle" dy="0em" style="opacity: 1; font-family: -apple-system, BlinkMacSystemFont, 'Segoe UI', Roboto, 'Helvetica Neue', Arial, sans-serif; font-size: 18px; fill: rgb(44, 62, 80); fill-opacity: 1; font-weight: bold; white-space: pre;">Top Holdings</text></g><g class="g-xtitle"/><g class="g-ytitle"><text class="ytitle" transform="rotate(-90,16.9125,213)" x="16.9125" y="213" text-anchor="middle" style="opacity: 1; font-family: 'Open Sans', verdana, arial, sans-serif; font-size: 14px; fill: rgb(42, 63, 95); fill-opacity: 1; white-space: pre;">Peso (%)</text></g></g></svg>